<svg width="136" height="25" xmlns="http://www.w3.org/2000/svg"><path d="M4.192 19.14h-2.75V6.273h7.576v2.32H4.192v2.646h4.826v2.338H4.192v5.563zm6.698-8.622h2.487v4.535q0 1.143.444 1.635t1.446.492q.993 0 1.441-.497.448-.496.448-1.63v-4.535h2.505v4.535q0 2.276-1.063 3.353-1.064 1.077-3.296 1.077-2.277 0-3.344-1.072-1.068-1.073-1.068-3.358v-4.535zm13.992 8.622h-2.505v-6.662h-1.204v-1.96h1.204V7.653h2.505v2.865h1.204v1.96h-1.204v6.662zm2.716-8.622h2.487v4.535q0 1.143.444 1.635t1.446.492q.993 0 1.441-.497.448-.496.448-1.63v-4.535h2.505v4.535q0 2.276-1.063 3.353-1.064 1.077-3.296 1.077-2.277 0-3.344-1.072-1.068-1.073-1.068-3.358v-4.535zm13.65 0l-.054 2.215q.378-1.257 1.086-1.881.707-.624 1.753-.624.238 0 .782.088l.159.026-.378 2.69q-.282-.115-.567-.172-.286-.057-.602-.057-1.143 0-1.644.585-.5.584-.5 1.955v3.797h-2.506v-8.622h2.47zm11.38 4.324q0-1.055-.614-1.683-.616-.628-1.653-.628t-1.643.624q-.607.624-.607 1.687 0 1.055.607 1.688.606.632 1.643.632 1.029 0 1.648-.632.62-.633.62-1.688zm2.55.018q0 1.986-1.358 3.304-1.358 1.319-3.441 1.319-2.1 0-3.463-1.319-1.362-1.318-1.362-3.304 0-1.978 1.37-3.305 1.372-1.327 3.455-1.327 2.092 0 3.445 1.31 1.354 1.309 1.354 3.322zm12.568-7.998l-.097 2.76q-.835-.748-1.713-1.095-.88-.347-1.881-.347-2.057 0-3.279 1.23-1.221 1.231-1.221 3.305 0 2.03 1.133 3.221 1.134 1.191 3.094 1.191 1.116 0 2.074-.373.958-.374 1.776-1.12l-.018 2.82q-.879.519-1.841.774t-2.026.255q-3.076 0-5.05-1.912-1.972-1.911-1.972-4.856 0-2.935 1.977-4.843Q60.68 5.965 63.8 5.965q1.046 0 2.021.22.976.22 1.925.677zm8.763 7.98q0-1.055-.615-1.683-.616-.628-1.653-.628t-1.643.624q-.607.624-.607 1.687 0 1.055.607 1.688.606.632 1.643.632 1.029 0 1.648-.632.62-.633.62-1.688zm2.549.018q0 1.986-1.358 3.304-1.358 1.319-3.441 1.319-2.1 0-3.463-1.319-1.362-1.318-1.362-3.304 0-1.978 1.37-3.305 1.372-1.327 3.455-1.327 2.092 0 3.445 1.31 1.354 1.309 1.354 3.322zm1.766-7.884q0-.598.43-1.028.432-.431 1.03-.431.606 0 1.04.426.436.426.436 1.033 0 .606-.435 1.037-.435.43-1.042.43-.597 0-1.028-.439-.43-.44-.43-1.028zM83.54 19.14h-2.496v-8.622h2.496v8.622zm5.045 0H86.08v-8.622h2.452v1.353q.677-.843 1.455-1.243.778-.4 1.727-.4 1.002 0 1.683.338.681.339 1.077 1.033.193.36.276.813.084.453.084 1.42v5.308h-2.505v-4.263q0-1.59-.369-2.1-.37-.51-1.266-.51-.518 0-.953.215-.435.216-.725.611-.229.308-.33.703-.101.396-.101 1.204V19.14z" fill="#00c8cf"/></svg>