<svg width="269" height="46" xmlns="http://www.w3.org/2000/svg"><path d="M11.256 6.89l-.108 1.993q-.838-.714-1.772-1.071t-1.963-.357q-1.993 0-3.242 1.278-1.25 1.279-1.25 3.312 0 1.968 1.217 3.246 1.216 1.278 3.067 1.278 1.08 0 2.055-.382.975-.381 1.871-1.153v2.233q-.797.572-1.735.855-.938.282-2.033.282-1.395 0-2.578-.457-1.182-.456-2.079-1.345-.888-.871-1.365-2.054-.478-1.183-.478-2.52 0-1.336.478-2.51.477-1.175 1.382-2.063.904-.896 2.075-1.357 1.17-.46 2.532-.46 1.07 0 2.042.31.97.312 1.884.943zm3.993 3.304v1.27q.29-.78.767-1.154.478-.373 1.183-.373.382 0 .751.091.37.092.727.266l-.648 1.527q-.232-.166-.502-.245-.27-.079-.602-.079-.896 0-1.286.718-.39.719-.39 2.412v3.453h-1.802v-7.886h1.802zm11.488.017l-5.678 11.571h-1.851l2.158-4.383-2.888-7.188h1.992l1.444 4.076q.125.373.22.76.095.385.154.783.108-.415.514-1.32l.042-.099 1.942-4.2h1.95zm2.722 3.91q0 1.22.61 1.95t1.607.73q1.02 0 1.581-.68.56-.68.56-1.934 0-1.245-.585-1.947-.585-.701-1.606-.701-1.021 0-1.594.68-.573.681-.573 1.902zm.059 7.661h-1.802V10.211h1.802v1.286q.315-.747 1.008-1.153.693-.407 1.656-.407 1.569 0 2.544 1.158.976 1.158.976 3.042 0 1.984-.96 3.125-.958 1.142-2.626 1.142-.83 0-1.474-.332-.643-.332-1.124-1.013v4.723zm10.317-3.702h-1.8v-6.292h-1.379v-1.577h1.378V7.23h1.801v2.98h1.378v1.577h-1.378v6.292zm9.115-3.91q0-1.095-.706-1.855-.705-.76-1.726-.76-1.013 0-1.723.76-.71.76-.71 1.855 0 1.096.71 1.856t1.723.76q1.012 0 1.722-.76t.71-1.856zm-6.765-.016q0-.864.327-1.631.328-.768.943-1.366.606-.59 1.394-.905.789-.315 1.652-.315.888 0 1.673.315.784.316 1.407.93.622.606.946 1.37.324.763.324 1.602 0 .871-.32 1.635t-.934 1.353q-.647.623-1.436.942-.788.32-1.66.32-.855 0-1.644-.32-.788-.32-1.402-.925-.623-.615-.947-1.378-.323-.764-.323-1.627zm16.452-3.727v2.025q-.415-.456-.967-.697-.552-.24-1.191-.24-1.104 0-1.769.713-.664.714-.664 1.893 0 1.228.669 1.93.668.7 1.847.7.655 0 1.17-.244.515-.245.905-.743v2.075q-.498.283-1.067.424-.569.14-1.208.14-1.85 0-3.017-1.178-1.166-1.179-1.166-3.055 0-1.9 1.207-3.067 1.208-1.166 3.159-1.166.614 0 1.129.12.514.12.963.37zm1.784-.216h1.802v4.432q0 1.146.473 1.644t1.535.498q1.063 0 1.536-.498.473-.498.473-1.644v-4.432h1.802v3.893q0 2.258-.905 3.279-.905 1.02-2.889 1.02-2.017 0-2.922-1.012-.905-1.013-.905-3.287V10.21zm11.854-.017v1.27q.29-.78.768-1.154.477-.373 1.183-.373.381 0 .75.091.37.092.727.266l-.647 1.527q-.233-.166-.503-.245-.27-.079-.601-.079-.897 0-1.287.718-.39.719-.39 2.412v3.453h-1.801v-7.886h1.8zm6.259 0v1.27q.29-.78.768-1.154.477-.373 1.182-.373.382 0 .752.091.369.092.726.266l-.648 1.527q-.232-.166-.502-.245-.27-.079-.602-.079-.896 0-1.286.718-.39.719-.39 2.412v3.453h-1.802v-7.886h1.802zm12.036 3.877v.34h-6.292q.066 1.104.656 1.722.589.619 1.568.619.872 0 1.453-.365.581-.366 1.013-1.18l1.519.848q-.664 1.187-1.644 1.768-.98.58-2.3.58-1.892 0-3.012-1.153-1.12-1.154-1.12-3.08 0-1.85 1.157-3.042 1.158-1.191 2.976-1.191 1.9 0 2.963 1.087 1.063 1.088 1.063 3.047zm-6.176-.872h4.308q-.108-.847-.647-1.29-.54-.445-1.478-.445-.888 0-1.428.432-.54.432-.755 1.303zm9.853 4.881h-1.801v-7.87h1.693v1.287q.54-.813 1.27-1.187.73-.373 1.777-.373.88 0 1.498.278t.967.826q.207.324.299.755.091.432.091 1.511v4.773h-1.818v-4.042q0-1.553-.378-2.063-.377-.51-1.34-.51-.631 0-1.125.232t-.776.655q-.2.283-.278.727-.079.444-.079 1.415v3.586zm14.07-7.653v2.025q-.415-.456-.967-.697-.552-.24-1.191-.24-1.104 0-1.768.713-.664.714-.664 1.893 0 1.228.668 1.93.668.7 1.847.7.655 0 1.17-.244.515-.245.905-.743v2.075q-.498.283-1.067.424-.568.14-1.208.14-1.85 0-3.017-1.178-1.166-1.179-1.166-3.055 0-1.9 1.208-3.067 1.207-1.166 3.158-1.166.614 0 1.129.12t.963.37zm1.685-3.62q0-.456.336-.788t.801-.332q.482 0 .801.32.32.32.32.8 0 .482-.324.81-.324.328-.797.328-.465 0-.8-.336-.337-.337-.337-.801zm2.042 11.273h-1.801v-7.87h1.8v7.87zm10.152-4.01v.341h-6.292q.066 1.104.656 1.722.589.619 1.568.619.872 0 1.453-.365.581-.366 1.013-1.18l1.519.848q-.664 1.187-1.644 1.768-.98.58-2.3.58-1.892 0-3.012-1.153-1.12-1.154-1.12-3.08 0-1.85 1.157-3.042 1.158-1.191 2.976-1.191 1.9 0 2.963 1.087 1.063 1.088 1.063 3.047zm-6.176-.87h4.308q-.108-.848-.647-1.292-.54-.444-1.478-.444-.888 0-1.428.432-.54.432-.755 1.303zm7.147 3.452l1.494-.813q.166.59.614.896.449.307 1.154.307.606 0 .95-.278.345-.278.345-.76 0-.638-1.228-1.095-.415-.15-.64-.249-1.261-.523-1.763-1.062-.503-.54-.503-1.312 0-1.054.826-1.71.826-.656 2.188-.656.913 0 1.564.337.652.336.95.958l-1.278.88q-.14-.373-.494-.593-.352-.22-.817-.22-.515 0-.826.245-.311.244-.311.651 0 .614 1.394 1.12.44.158.68.258 1.088.432 1.557.975.47.544.47 1.358 0 1.178-.856 1.847-.855.668-2.357.668-1.154 0-1.918-.432-.763-.432-1.195-1.32zm20.677-6.441v7.869h-1.801v-1.021q-.481.68-1.125 1.013-.643.332-1.473.332-1.669 0-2.627-1.142-.96-1.141-.96-3.125 0-1.884.98-3.042t2.557-1.158q.963 0 1.648.403.685.402 1 1.157v-1.286h1.801zm-1.751 3.91q0-1.22-.569-1.901-.568-.681-1.59-.681-1.02 0-1.606.701-.585.702-.585 1.947 0 1.253.565 1.934.564.68 1.593.68.972 0 1.582-.738.61-.739.61-1.942zm6.043-3.927v1.27q.29-.78.768-1.154.477-.373 1.182-.373.382 0 .752.091.369.092.726.266l-.647 1.527q-.233-.166-.503-.245-.27-.079-.601-.079-.897 0-1.287.718-.39.719-.39 2.412v3.453h-1.802v-7.886h1.802zm12.036 3.877v.34h-6.292q.066 1.104.656 1.722.589.619 1.568.619.872 0 1.453-.365.581-.366 1.013-1.18l1.519.848q-.664 1.187-1.644 1.768-.98.58-2.299.58-1.893 0-3.013-1.153-1.12-1.154-1.12-3.08 0-1.85 1.157-3.042 1.158-1.191 2.976-1.191 1.9 0 2.963 1.087 1.063 1.088 1.063 3.047zm-6.176-.872h4.308q-.108-.847-.647-1.29-.54-.445-1.478-.445-.888 0-1.428.432-.54.432-.755 1.303zm15.406 4.881h-1.8v-6.292h-1.379v-1.577h1.378V7.23h1.801v2.98h1.378v1.577h-1.378v6.292zm4.732 0h-1.801V5.214h1.693v6.283q.54-.813 1.27-1.187.73-.373 1.776-.373.88 0 1.499.278.618.278.967.826.207.324.298.755.092.432.092 1.511v4.773h-1.818v-4.042q0-1.553-.378-2.063-.378-.51-1.34-.51-.631 0-1.125.232t-.776.655q-.2.283-.278.727-.08.444-.08 1.415v3.586zm15.771-4.01v.341h-6.292q.067 1.104.656 1.722.59.619 1.569.619.871 0 1.453-.365.58-.366 1.012-1.18l1.52.848q-.665 1.187-1.644 1.768-.98.58-2.3.58-1.892 0-3.013-1.153-1.12-1.154-1.12-3.08 0-1.85 1.158-3.042 1.158-1.191 2.975-1.191 1.901 0 2.964 1.087 1.062 1.088 1.062 3.047zm-6.176-.87h4.309q-.108-.848-.648-1.292-.54-.444-1.477-.444-.889 0-1.428.432-.54.432-.756 1.303zm15.232 4.88h-1.8v-6.292h-1.379v-1.577h1.378V8.102q0-1.568.652-2.315.651-.748 2.021-.748.29 0 .598.042.307.041.622.133V6.84q-.216-.125-.436-.187t-.444-.062q-.647 0-.93.398-.282.399-.282 1.345v1.876h1.893v1.577h-1.893v6.292zm3.097-7.87h1.8v4.433q0 1.146.474 1.644.473.498 1.536.498 1.062 0 1.535-.498.473-.498.473-1.644v-4.432h1.802v3.893q0 2.258-.905 3.279-.905 1.02-2.889 1.02-2.017 0-2.922-1.012-.904-1.013-.904-3.287V10.21zm12.276 7.87h-1.8v-6.292h-1.379v-1.577h1.378V7.23h1.801v2.98h1.378v1.577h-1.378v6.292zm2.873-7.87h1.8v4.433q0 1.146.474 1.644.473.498 1.536.498 1.062 0 1.535-.498.473-.498.473-1.644v-4.432h1.802v3.893q0 2.258-.905 3.279-.905 1.02-2.889 1.02-2.017 0-2.922-1.012-.904-1.013-.904-3.287V10.21zm11.853-.016v1.27q.29-.78.768-1.154.477-.373 1.183-.373.382 0 .751.091.37.092.726.266l-.647 1.527q-.233-.166-.502-.245-.27-.079-.602-.079-.897 0-1.287.718-.39.719-.39 2.412v3.453h-1.801v-7.886h1.801zm12.036 3.877v.34h-6.292q.067 1.104.656 1.722.59.619 1.569.619.871 0 1.452-.365.582-.366 1.013-1.18l1.52.848q-.665 1.187-1.644 1.768-.98.58-2.3.58-1.892 0-3.013-1.153-1.12-1.154-1.12-3.08 0-1.85 1.157-3.042 1.158-1.191 2.976-1.191 1.901 0 2.964 1.087 1.062 1.088 1.062 3.047zm-6.176-.872h4.309q-.108-.847-.648-1.29-.54-.445-1.477-.445-.889 0-1.428.432-.54.432-.756 1.303zm28.937 1.569h-17v-1.212h17v1.212zM8.533 31.404H5.321V41.88H3.345V31.404H.116v-1.676h8.417v1.676zm3.163 10.476H9.895V29.014h1.693v6.283q.54-.813 1.27-1.187.73-.373 1.776-.373.88 0 1.499.278.618.278.967.826.207.324.298.755.092.432.092 1.511v4.773h-1.818v-4.042q0-1.553-.378-2.063-.377-.51-1.34-.51-.631 0-1.125.232t-.776.655q-.2.283-.278.727-.08.444-.08 1.415v3.586zm15.771-4.01v.341h-6.292q.067 1.104.656 1.722.59.619 1.569.619.871 0 1.453-.365.58-.366 1.012-1.18l1.52.848q-.665 1.187-1.644 1.768-.98.58-2.3.58-1.892 0-3.013-1.153-1.12-1.154-1.12-3.08 0-1.85 1.158-3.042 1.158-1.191 2.975-1.191 1.901 0 2.964 1.087 1.062 1.088 1.062 3.047zM21.292 37H25.6q-.108-.848-.648-1.292-.54-.444-1.477-.444-.889 0-1.428.432-.54.432-.755 1.303zm15.231 4.88h-1.8v-6.292h-1.379v-1.577h1.378v-2.109q0-1.568.652-2.315.651-.748 2.021-.748.29 0 .598.042.307.041.622.133v1.627q-.216-.125-.436-.187t-.444-.062q-.647 0-.93.398-.282.399-.282 1.345v1.876h1.893v1.577h-1.893v6.292zm3.097-7.87h1.8v4.433q0 1.146.474 1.644.473.498 1.536.498 1.062 0 1.535-.498.473-.498.473-1.644v-4.432h1.802v3.893q0 2.258-.905 3.279-.905 1.02-2.889 1.02-2.017 0-2.922-1.012-.904-1.013-.904-3.287V34.01zm12.276 7.87h-1.8v-6.292h-1.379v-1.577h1.378v-2.98h1.801v2.98h1.378v1.577h-1.378v6.292zm2.873-7.87h1.8v4.433q0 1.146.474 1.644.473.498 1.536.498 1.062 0 1.535-.498.473-.498.473-1.644v-4.432h1.802v3.893q0 2.258-.905 3.279-.905 1.02-2.889 1.02-2.017 0-2.922-1.012-.904-1.013-.904-3.287V34.01zm11.853-.016v1.27q.29-.78.768-1.154.477-.373 1.183-.373.382 0 .751.091.37.092.726.266l-.647 1.527q-.233-.166-.502-.245-.27-.079-.602-.079-.897 0-1.287.718-.39.719-.39 2.412v3.453h-1.801v-7.886h1.801zm12.036 3.877v.34h-6.292q.067 1.104.656 1.722.59.619 1.569.619.871 0 1.452-.365.582-.366 1.013-1.18l1.52.848q-.665 1.187-1.644 1.768-.98.58-2.3.58-1.892 0-3.013-1.153-1.12-1.154-1.12-3.08 0-1.85 1.157-3.042 1.158-1.191 2.976-1.191 1.901 0 2.964 1.087 1.062 1.088 1.062 3.047zm-6.176-.872h4.309q-.108-.847-.648-1.29-.54-.445-1.477-.445-.889 0-1.428.432-.54.432-.756 1.303zm13.024-6.391q0-.457.337-.789.336-.332.8-.332.482 0 .802.32.32.32.32.8 0 .482-.325.81-.323.328-.796.328-.465 0-.801-.336-.337-.337-.337-.801zm2.042 11.272h-1.8v-7.87h1.8v7.87zm1.669-1.428l1.494-.813q.166.59.614.896.448.307 1.154.307.606 0 .95-.278.345-.278.345-.76 0-.638-1.229-1.095-.415-.15-.639-.249-1.261-.523-1.764-1.062-.502-.54-.502-1.312 0-1.054.826-1.71.826-.656 2.187-.656.913 0 1.565.337.652.336.95.958l-1.278.88q-.141-.373-.494-.593-.353-.22-.817-.22-.515 0-.826.245-.312.244-.312.651 0 .614 1.395 1.12.44.158.68.258 1.088.432 1.557.975.469.544.469 1.358 0 1.178-.855 1.847-.855.668-2.357.668-1.154 0-1.918-.432t-1.195-1.32z" fill="#fff"/></svg>