<svg width="269" height="24" xmlns="http://www.w3.org/2000/svg"><path d="M.697 15.648l1.577-.73q.225.813.822 1.24.598.428 1.528.428.88 0 1.398-.49.519-.49.519-1.311 0-1.071-1.776-1.91-.25-.124-.382-.182-2.009-.98-2.677-1.772-.668-.793-.668-1.939 0-1.485 1.008-2.407 1.009-.921 2.644-.921 1.345 0 2.25.519.904.518 1.253 1.49l-1.544.796q-.365-.572-.801-.838-.436-.266-1-.266-.797 0-1.266.415-.47.415-.47 1.113 0 1.095 2.06 2.042l.248.116q1.802.83 2.474 1.623.672.792.672 1.98 0 1.726-1.087 2.743t-2.938 1.017q-1.553 0-2.545-.714T.697 15.648zm9.82-5.437h1.801v4.432q0 1.146.474 1.644.473.498 1.535.498 1.063 0 1.536-.498.473-.498.473-1.644v-4.432h1.801v3.893q0 2.258-.905 3.279-.904 1.02-2.888 1.02-2.017 0-2.922-1.012-.905-1.013-.905-3.287V10.21zm11.796 3.91q0 1.203.618 1.942.618.739 1.598.739 1.02 0 1.581-.681.56-.68.56-1.934 0-1.245-.585-1.947-.585-.701-1.606-.701-1.021 0-1.594.68-.573.681-.573 1.902zm-1.744-8.907h1.802v6.283q.315-.747 1.008-1.153.693-.407 1.656-.407 1.569 0 2.544 1.158.976 1.158.976 3.042 0 1.984-.96 3.125-.958 1.142-2.626 1.142-.83 0-1.474-.332-.643-.332-1.124-1.013v1.021h-1.802V5.214zm8.99 11.438l1.494-.813q.166.59.614.896.449.307 1.154.307.606 0 .95-.278.345-.278.345-.76 0-.638-1.228-1.095-.415-.15-.64-.249-1.261-.523-1.763-1.062-.503-.54-.503-1.312 0-1.054.826-1.71.826-.656 2.188-.656.913 0 1.564.337.652.336.95.958l-1.278.88q-.14-.373-.493-.593-.353-.22-.818-.22-.515 0-.826.245-.311.244-.311.651 0 .614 1.394 1.12.44.158.68.258 1.088.432 1.557.975.47.544.47 1.358 0 1.178-.856 1.847-.855.668-2.357.668-1.154 0-1.918-.432-.763-.432-1.195-1.32zm14.02-6.225v2.025q-.415-.456-.967-.697-.552-.24-1.191-.24-1.104 0-1.768.713-.664.714-.664 1.893 0 1.228.668 1.93.668.7 1.847.7.656 0 1.17-.244.515-.245.905-.743v2.075q-.498.283-1.067.424-.568.14-1.207.14-1.851 0-3.018-1.178-1.166-1.179-1.166-3.055 0-1.9 1.208-3.067 1.208-1.166 3.158-1.166.615 0 1.13.12.514.12.962.37zm3.644-.233v1.27q.29-.78.768-1.154.477-.373 1.183-.373.382 0 .751.091.37.092.726.266l-.647 1.527q-.233-.166-.502-.245-.27-.079-.602-.079-.897 0-1.287.718-.39.719-.39 2.412v3.453h-1.801v-7.886h1.801zm4.3-3.386q0-.457.336-.789t.801-.332q.482 0 .801.32.32.32.32.8 0 .482-.324.81-.324.328-.797.328-.465 0-.8-.336-.337-.337-.337-.801zm2.042 11.272h-1.801v-7.87h1.8v7.87zm4.316-3.96q0 1.204.619 1.943.618.739 1.598.739 1.02 0 1.581-.681.56-.68.56-1.934 0-1.245-.585-1.947-.585-.701-1.606-.701-1.021 0-1.594.68-.573.681-.573 1.902zm-1.743-8.906h1.801v6.283q.316-.747 1.009-1.153.693-.407 1.656-.407 1.569 0 2.544 1.158.976 1.158.976 3.042 0 1.984-.96 3.125-.958 1.142-2.626 1.142-.83 0-1.474-.332-.643-.332-1.125-1.013v1.021h-1.8V5.214zm17.473 8.857v.34H67.32q.067 1.104.656 1.722.59.619 1.569.619.872 0 1.453-.365.58-.366 1.012-1.18l1.52.848q-.665 1.187-1.644 1.768-.98.58-2.3.58-1.892 0-3.013-1.153-1.12-1.154-1.12-3.08 0-1.85 1.158-3.042 1.158-1.191 2.975-1.191 1.901 0 2.964 1.087 1.062 1.088 1.062 3.047zm-6.175-.872h4.308q-.108-.847-.648-1.29-.54-.445-1.477-.445-.889 0-1.428.432-.54.432-.755 1.303zm15.406 4.881H81.04v-6.292h-1.378v-1.577h1.378V7.23h1.8v2.98h1.379v1.577h-1.378v6.292zm4.731 0h-1.801V5.214h1.693v6.283q.54-.813 1.27-1.187.73-.373 1.777-.373.88 0 1.498.278t.967.826q.208.324.299.755.091.432.091 1.511v4.773H91.55v-4.042q0-1.553-.377-2.063-.378-.51-1.34-.51-.632 0-1.126.232-.494.232-.776.655-.199.283-.278.727-.079.444-.079 1.415v3.586zm15.772-4.01v.341h-6.292q.066 1.104.655 1.722.59.619 1.57.619.87 0 1.452-.365.581-.366 1.013-1.18l1.519.848q-.664 1.187-1.644 1.768-.98.58-2.3.58-1.892 0-3.012-1.153-1.12-1.154-1.12-3.08 0-1.85 1.157-3.042 1.158-1.191 2.976-1.191 1.9 0 2.963 1.087 1.063 1.088 1.063 3.047zm-6.176-.87h4.308q-.108-.848-.647-1.292-.54-.444-1.478-.444-.888 0-1.428.432-.54.432-.755 1.303zm15.232 4.88H110.6v-6.292h-1.378v-1.577h1.378V8.102q0-1.568.651-2.315.652-.748 2.021-.748.291 0 .598.042.307.041.623.133V6.84q-.216-.125-.436-.187t-.444-.062q-.648 0-.93.398-.282.399-.282 1.345v1.876h1.892v1.577h-1.892v6.292zm3.096-7.87h1.801v4.433q0 1.146.473 1.644.474.498 1.536.498 1.063 0 1.536-.498.473-.498.473-1.644v-4.432h1.801v3.893q0 2.258-.905 3.279-.904 1.02-2.888 1.02-2.017 0-2.922-1.012-.905-1.013-.905-3.287V10.21zm12.277 7.87h-1.801v-6.292h-1.378v-1.577h1.378V7.23h1.8v2.98h1.379v1.577h-1.378v6.292zm2.872-7.87h1.801v4.433q0 1.146.473 1.644.474.498 1.536.498 1.063 0 1.536-.498.473-.498.473-1.644v-4.432h1.801v3.893q0 2.258-.905 3.279-.904 1.02-2.888 1.02-2.017 0-2.922-1.012-.905-1.013-.905-3.287V10.21zm11.854-.016v1.27q.29-.78.767-1.154.478-.373 1.183-.373.382 0 .751.091.37.092.727.266l-.648 1.527q-.232-.166-.502-.245-.27-.079-.602-.079-.896 0-1.286.718-.39.719-.39 2.412v3.453h-1.802v-7.886h1.802zm12.036 3.877v.34h-6.292q.066 1.104.655 1.722.59.619 1.57.619.87 0 1.452-.365.581-.366 1.013-1.18l1.519.848q-.664 1.187-1.644 1.768-.98.58-2.3.58-1.892 0-3.012-1.153-1.121-1.154-1.121-3.08 0-1.85 1.158-3.042 1.158-1.191 2.976-1.191 1.9 0 2.963 1.087 1.063 1.088 1.063 3.047zm-6.176-.872h4.308q-.108-.847-.647-1.29-.54-.445-1.478-.445-.888 0-1.428.432-.54.432-.755 1.303zm14.983 4.881h-1.801v-7.87h1.693v1.287q.54-.813 1.27-1.187.73-.373 1.776-.373.88 0 1.499.278.618.278.967.826.207.324.298.755.092.432.092 1.511v4.773h-1.818v-4.042q0-1.553-.378-2.063-.378-.51-1.34-.51-.631 0-1.125.232t-.776.655q-.2.283-.278.727-.08.444-.08 1.415v3.586zm14.377-3.91q0-1.095-.706-1.855-.705-.76-1.726-.76-1.013 0-1.723.76-.71.76-.71 1.855 0 1.096.71 1.856t1.723.76q1.012 0 1.722-.76t.71-1.856zm-6.765-.016q0-.864.327-1.631.328-.768.943-1.366.606-.59 1.394-.905.789-.315 1.652-.315.888 0 1.673.315.784.316 1.407.93.622.606.946 1.37.324.763.324 1.602 0 .871-.32 1.635t-.934 1.353q-.647.623-1.436.942-.788.32-1.66.32-.855 0-1.644-.32-.788-.32-1.402-.925-.623-.615-.947-1.378-.323-.764-.323-1.627zm22.196-3.943l-4.092 8.342-1.818-4.092q-.208-.473-.34-.843-.133-.37-.241-.726-.183.54-.324.926-.141.386-.224.576l-1.868 4.16-4.076-8.343h1.918l1.768 3.793q.108.241.212.66.103.42.178.926.008-.3.1-.623.091-.324.307-.797l1.926-4.25h.15l1.958 4.25q.183.399.27.74.087.34.104.68.074-.448.19-.847.117-.398.266-.722l1.735-3.81h1.9z" fill="#fff"/></svg>