<svg width="105" height="23" xmlns="http://www.w3.org/2000/svg"><path d="M3.295 18.08h-1.8v-6.292H.115v-1.577h1.378V8.102q0-1.568.652-2.315.651-.748 2.021-.748.29 0 .598.042.307.041.622.133V6.84q-.216-.125-.436-.187t-.444-.062q-.647 0-.93.398-.282.399-.282 1.345v1.876h1.893v1.577H3.295v6.292zm3.097-7.87h1.8v4.433q0 1.146.474 1.644.473.498 1.536.498 1.062 0 1.535-.498.473-.498.473-1.644v-4.432h1.802v3.893q0 2.258-.905 3.279-.905 1.02-2.889 1.02-2.017 0-2.922-1.012-.904-1.013-.904-3.287V10.21zm12.276 7.87h-1.8v-6.292h-1.379v-1.577h1.378V7.23h1.801v2.98h1.378v1.577h-1.378v6.292zm2.873-7.87h1.8v4.433q0 1.146.474 1.644.473.498 1.536.498 1.062 0 1.535-.498.473-.498.473-1.644v-4.432h1.802v3.893q0 2.258-.905 3.279-.905 1.02-2.889 1.02-2.017 0-2.922-1.012-.904-1.013-.904-3.287V10.21zm11.853-.016v1.27q.29-.78.768-1.154.477-.373 1.183-.373.382 0 .75.091.37.092.727.266l-.647 1.527q-.233-.166-.502-.245-.27-.079-.602-.079-.897 0-1.287.718-.39.719-.39 2.412v3.453h-1.801v-7.886h1.801zm12.036 3.877v.34h-6.292q.067 1.104.656 1.722.59.619 1.569.619.871 0 1.452-.365.581-.366 1.013-1.18l1.52.848q-.665 1.187-1.644 1.768-.98.58-2.3.58-1.892 0-3.013-1.153-1.12-1.154-1.12-3.08 0-1.85 1.157-3.042 1.158-1.191 2.976-1.191 1.901 0 2.964 1.087 1.062 1.088 1.062 3.047zm-6.176-.872h4.309q-.108-.847-.648-1.29-.54-.445-1.477-.445-.889 0-1.428.432-.54.432-.756 1.303zm13.024-6.391q0-.457.337-.789.336-.332.8-.332.482 0 .802.32.32.32.32.8 0 .482-.325.81-.323.328-.796.328-.465 0-.801-.336-.337-.337-.337-.801zM54.32 18.08H52.52v-7.87h1.801v7.87zm1.669-1.428l1.494-.813q.166.59.614.896.448.307 1.154.307.606 0 .95-.278.345-.278.345-.76 0-.638-1.229-1.095-.415-.15-.639-.249-1.261-.523-1.764-1.062-.502-.54-.502-1.312 0-1.054.826-1.71.826-.656 2.187-.656.913 0 1.565.337.652.336.95.958l-1.278.88q-.141-.373-.494-.593-.353-.22-.817-.22-.515 0-.826.245-.312.244-.312.651 0 .614 1.395 1.12.44.158.68.258 1.088.432 1.557.975.469.544.469 1.358 0 1.178-.855 1.847-.855.668-2.357.668-1.154 0-1.918-.432t-1.195-1.32z" fill="#fff"/></svg>