<svg width="311" height="28" xmlns="http://www.w3.org/2000/svg"><path d="M13.242 8.106l-.127 2.344q-.986-.84-2.085-1.26-1.098-.42-2.31-.42-2.343 0-3.813 1.504-1.47 1.504-1.47 3.896 0 2.315 1.431 3.819 1.43 1.504 3.609 1.504 1.27 0 2.417-.45 1.147-.449 2.202-1.357v2.627q-.938.674-2.041 1.006-1.104.332-2.393.332-1.64 0-3.032-.537-1.392-.537-2.446-1.582-1.045-1.026-1.607-2.417-.561-1.392-.561-2.964t.561-2.954Q2.14 9.815 3.203 8.77q1.065-1.055 2.442-1.597 1.376-.542 2.978-.542 1.26 0 2.402.367 1.143.366 2.217 1.108zm4.697 3.887v1.494q.342-.918.904-1.358.561-.44 1.391-.44.45 0 .884.108.435.108.855.313l-.762 1.797q-.273-.196-.59-.288-.318-.093-.709-.093-1.055 0-1.514.845-.459.844-.459 2.836v4.063H15.82v-9.277h2.12zm13.516.02l-6.68 13.612h-2.177l2.539-5.156-3.399-8.457h2.344l1.7 4.795q.146.44.258.894.112.454.18.923.128-.489.606-1.553l.049-.117 2.285-4.942h2.295zm3.203 4.599q0 1.435.718 2.295.718.86 1.89.86 1.2 0 1.86-.802.66-.8.66-2.275 0-1.465-.69-2.29-.688-.825-1.889-.825t-1.875.8q-.674.801-.674 2.237zm.069 9.013h-2.12V12.012h2.12v1.514q.37-.879 1.186-1.358.816-.478 1.948-.478 1.846 0 2.993 1.362 1.148 1.363 1.148 3.58 0 2.333-1.128 3.676t-3.09 1.343q-.977 0-1.734-.39-.757-.391-1.323-1.192v5.556zm12.138-4.355h-2.119v-7.402h-1.621v-1.856h1.621V8.506h2.12v3.506h1.62v1.856h-1.62v7.402zm10.723-4.6q0-1.289-.83-2.182-.83-.894-2.031-.894-1.192 0-2.027.894-.835.893-.835 2.182 0 1.29.835 2.183.835.894 2.027.894 1.191 0 2.026-.894.835-.894.835-2.183zm-7.96-.02q0-1.015.387-1.918.385-.903 1.108-1.607.713-.693 1.64-1.064.928-.371 1.944-.371 1.045 0 1.968.371t1.655 1.094q.733.713 1.113 1.611.381.899.381 1.885 0 1.025-.376 1.924-.376.898-1.098 1.591-.762.733-1.69 1.109-.928.376-1.953.376-1.006 0-1.934-.376-.927-.376-1.65-1.089-.732-.723-1.113-1.621-.381-.899-.381-1.914zm19.356-4.384v2.383q-.488-.537-1.137-.82-.65-.284-1.402-.284-1.299 0-2.08.84-.781.84-.781 2.227 0 1.445.786 2.27t2.173.825q.771 0 1.377-.288.605-.288 1.064-.874v2.442q-.586.332-1.255.498-.668.166-1.42.166-2.178 0-3.55-1.387-1.372-1.387-1.372-3.594 0-2.236 1.42-3.608 1.422-1.372 3.716-1.372.723 0 1.329.142.605.141 1.132.434zm2.1-.254h2.12v5.215q0 1.348.556 1.934.556.586 1.806.586t1.807-.586q.557-.586.557-1.934v-5.215h2.119v4.58q0 2.657-1.065 3.858-1.064 1.2-3.398 1.2-2.373 0-3.438-1.19-1.064-1.192-1.064-3.868v-4.58zm13.945-.02v1.495q.342-.918.904-1.358.561-.44 1.391-.44.45 0 .884.108.435.108.855.313l-.762 1.797q-.274-.196-.591-.288-.317-.093-.708-.093-1.055 0-1.514.845-.459.844-.459 2.836v4.063H82.91v-9.277h2.12zm7.364 0v1.495q.341-.918.903-1.358.561-.44 1.391-.44.45 0 .884.108.435.108.855.313l-.762 1.797q-.273-.196-.59-.288-.318-.093-.709-.093-1.054 0-1.513.845-.46.844-.46 2.836v4.063h-2.119v-9.277h2.12zm14.16 4.561v.4H99.15q.079 1.3.772 2.027.693.727 1.846.727 1.025 0 1.709-.43.683-.429 1.191-1.386l1.787.996q-.781 1.397-1.934 2.08-1.152.684-2.705.684-2.226 0-3.545-1.358-1.318-1.357-1.318-3.623 0-2.177 1.362-3.579 1.363-1.401 3.501-1.401 2.237 0 3.487 1.28 1.25 1.279 1.25 3.583zm-7.266-1.025h5.068q-.126-.996-.761-1.519-.635-.522-1.739-.522-1.044 0-1.68.508-.634.507-.888 1.533zm11.592 5.742h-2.12v-9.258h1.993v1.514q.635-.957 1.494-1.397.86-.44 2.09-.44 1.035 0 1.763.328.727.327 1.137.972.244.38.352.888.107.508.107 1.778v5.615h-2.138v-4.756q0-1.826-.445-2.427-.444-.6-1.577-.6-.742 0-1.323.273-.581.274-.913.772-.235.332-.327.854-.093.523-.093 1.665v4.219zm16.553-9.004v2.383q-.489-.537-1.138-.82-.65-.284-1.401-.284-1.3 0-2.08.84-.782.84-.782 2.227 0 1.445.786 2.27.787.825 2.173.825.772 0 1.377-.288.606-.288 1.065-.874v2.442q-.586.332-1.255.498-.67.166-1.421.166-2.178 0-3.55-1.387-1.372-1.387-1.372-3.594 0-2.236 1.42-3.608 1.422-1.372 3.717-1.372.722 0 1.328.142.605.141 1.133.434zm1.982-4.258q0-.537.396-.927.395-.391.942-.391.566 0 .942.376t.376.942q0 .567-.38.952-.381.386-.938.386-.547 0-.942-.395-.396-.396-.396-.943zm2.402 13.262h-2.119v-9.258h2.12v9.258zm11.944-4.717v.4h-7.403q.079 1.3.772 2.027.693.727 1.846.727 1.025 0 1.709-.43.683-.429 1.191-1.386l1.787.996q-.781 1.397-1.933 2.08-1.153.684-2.706.684-2.226 0-3.544-1.358-1.319-1.357-1.319-3.623 0-2.177 1.362-3.579 1.363-1.401 3.501-1.401 2.237 0 3.487 1.28 1.25 1.279 1.25 3.583zm-7.266-1.025h5.069q-.127-.996-.762-1.519-.635-.522-1.738-.522-1.045 0-1.68.508-.635.507-.889 1.533zm8.408 4.062l1.758-.957q.195.694.723 1.055.527.361 1.357.361.713 0 1.118-.327.406-.327.406-.893 0-.752-1.446-1.29-.488-.175-.752-.292-1.484-.616-2.075-1.25-.59-.635-.59-1.543 0-1.24.971-2.012.972-.772 2.573-.772 1.075 0 1.841.396.767.395 1.118 1.128l-1.504 1.035q-.166-.44-.58-.698-.416-.259-.963-.259-.605 0-.971.288t-.366.767q0 .722 1.64 1.318.518.186.8.303 1.28.508 1.832 1.147.552.64.552 1.597 0 1.387-1.006 2.173t-2.774.786q-1.357 0-2.255-.508-.899-.508-1.407-1.553zm24.327-7.578v9.258h-2.12v-1.201q-.566.8-1.323 1.191-.757.39-1.733.39-1.963 0-3.091-1.342-1.128-1.343-1.128-3.677 0-2.216 1.152-3.579 1.153-1.362 3.008-1.362 1.133 0 1.939.474.805.473 1.176 1.362v-1.514h2.12zm-2.061 4.6q0-1.436-.669-2.237-.669-.8-1.87-.8t-1.89.825q-.688.825-.688 2.29 0 1.475.664 2.275.664.801 1.875.801 1.142 0 1.86-.869.718-.87.718-2.285zm7.11-4.62v1.495q.341-.918.903-1.358.561-.44 1.391-.44.45 0 .884.108.435.108.855.313l-.762 1.797q-.274-.196-.591-.288-.317-.093-.708-.093-1.055 0-1.514.845-.459.844-.459 2.836v4.063h-2.119v-9.277h2.12zm14.16 4.561v.4h-7.403q.078 1.3.772 2.027.693.727 1.845.727 1.026 0 1.71-.43.683-.429 1.19-1.386l1.788.996q-.781 1.397-1.934 2.08-1.152.684-2.705.684-2.226 0-3.545-1.358-1.318-1.357-1.318-3.623 0-2.177 1.362-3.579 1.363-1.401 3.501-1.401 2.237 0 3.487 1.28 1.25 1.279 1.25 3.583zm-7.266-1.025h5.068q-.127-.996-.761-1.519-.635-.522-1.739-.522-1.045 0-1.68.508-.634.507-.888 1.533zm24.424 1.025v.4h-7.403q.078 1.3.772 2.027.693.727 1.846.727 1.025 0 1.709-.43.683-.429 1.19-1.386l1.788.996q-.781 1.397-1.934 2.08-1.152.684-2.705.684-2.226 0-3.545-1.358-1.318-1.357-1.318-3.623 0-2.177 1.362-3.579 1.363-1.401 3.501-1.401 2.237 0 3.487 1.28 1.25 1.279 1.25 3.583zm-7.266-1.025h5.068q-.127-.996-.761-1.519-.635-.522-1.739-.522-1.044 0-1.68.508-.634.507-.888 1.533zm18.184-3.516v9.258h-2.12v-1.201q-.566.8-1.323 1.191-.757.39-1.733.39-1.963 0-3.09-1.342-1.129-1.343-1.129-3.677 0-2.216 1.152-3.579 1.153-1.362 3.008-1.362 1.133 0 1.939.474.805.473 1.177 1.362v-1.514h2.119zm-2.06 4.6q0-1.436-.67-2.237-.669-.8-1.87-.8t-1.89.825q-.688.825-.688 2.29 0 1.475.664 2.275.664.801 1.875.801 1.143 0 1.86-.869.718-.87.718-2.285zm3.925 2.978l1.758-.957q.195.694.722 1.055.528.361 1.358.361.713 0 1.118-.327.405-.327.405-.893 0-.752-1.445-1.29-.488-.175-.752-.292-1.484-.616-2.075-1.25-.591-.635-.591-1.543 0-1.24.972-2.012.971-.772 2.573-.772 1.074 0 1.84.396.767.395 1.119 1.128l-1.504 1.035q-.166-.44-.581-.698-.415-.259-.962-.259-.605 0-.972.288-.366.288-.366.767 0 .722 1.64 1.318.518.186.802.303 1.279.508 1.83 1.147.552.64.552 1.597 0 1.387-1.006 2.173-1.005.786-2.773.786-1.357 0-2.256-.508-.898-.508-1.406-1.553zm17.851-7.578l-6.68 13.613h-2.177l2.54-5.156-3.4-8.457h2.344l1.7 4.795q.146.44.258.894.113.454.181.923.127-.489.606-1.553l.048-.117 2.286-4.942h2.294z" fill="#fff"/></svg>