<svg width="270" height="28" xmlns="http://www.w3.org/2000/svg"><path d="M4.658 21.27H1.602V6.973h8.418v2.578H4.658v2.94h5.362v2.597H4.658v6.182zm7.442-9.58h2.763v5.039q0 1.27.493 1.816.494.547 1.607.547 1.103 0 1.601-.551.498-.552.498-1.812v-5.04h2.784v5.04q0 2.53-1.182 3.726-1.182 1.196-3.662 1.196-2.53 0-3.716-1.192-1.186-1.191-1.186-3.73v-5.04zm15.546 9.58h-2.783v-7.402h-1.338V11.69h1.338V8.506h2.783v3.184h1.338v2.178h-1.338v7.402zm3.018-9.58h2.764v5.039q0 1.27.493 1.816.493.547 1.606.547 1.104 0 1.602-.551.498-.552.498-1.812v-5.04h2.783v5.04q0 2.53-1.181 3.726-1.182 1.196-3.663 1.196-2.529 0-3.715-1.192-1.187-1.191-1.187-3.73v-5.04zm15.166 0l-.059 2.46q.42-1.396 1.207-2.089.786-.693 1.948-.693.263 0 .869.097l.176.03-.42 2.988q-.313-.127-.63-.19-.317-.064-.669-.064-1.27 0-1.826.65-.557.649-.557 2.172v4.219h-2.783v-9.58h2.744zm12.647 4.805q0-1.172-.684-1.87-.684-.699-1.836-.699-1.152 0-1.826.694-.674.693-.674 1.875 0 1.171.674 1.875.674.703 1.826.703 1.143 0 1.831-.703.689-.704.689-1.875zm2.832.02q0 2.206-1.51 3.671-1.508 1.465-3.822 1.465-2.334 0-3.848-1.465-1.514-1.465-1.514-3.672 0-2.197 1.524-3.672 1.523-1.474 3.838-1.474 2.324 0 3.828 1.455t1.504 3.691zm13.964-8.888l-.107 3.067q-.928-.83-1.904-1.216-.977-.386-2.09-.386-2.285 0-3.643 1.367-1.357 1.368-1.357 3.672 0 2.256 1.26 3.58 1.26 1.323 3.437 1.323 1.24 0 2.305-.415 1.064-.415 1.972-1.245l-.019 3.134q-.977.576-2.046.86-1.07.283-2.25.283-3.419 0-5.611-2.124-2.193-2.124-2.193-5.396 0-3.261 2.198-5.38 2.197-2.12 5.664-2.12 1.162 0 2.246.244 1.084.245 2.138.752zm9.737 8.868q0-1.172-.684-1.87-.683-.699-1.836-.699-1.152 0-1.826.694-.674.693-.674 1.875 0 1.171.674 1.875.674.703 1.826.703 1.143 0 1.831-.703.689-.704.689-1.875zm2.832.02q0 2.206-1.509 3.671-1.509 1.465-3.823 1.465-2.334 0-3.848-1.465-1.514-1.465-1.514-3.672 0-2.197 1.524-3.672 1.523-1.474 3.838-1.474 2.324 0 3.828 1.455t1.504 3.691zm1.963-8.76q0-.665.478-1.143.479-.479 1.143-.479.674 0 1.157.474t.483 1.147q0 .674-.483 1.153-.483.478-1.157.478-.664 0-1.143-.488-.478-.488-.478-1.143zm3.017 13.515H90.05v-9.58h2.773v9.58zm5.606 0h-2.783v-9.58h2.724v1.504q.752-.938 1.616-1.382.865-.444 1.92-.444 1.113 0 1.87.376.756.376 1.196 1.147.215.4.307.903.093.503.093 1.578v5.898h-2.783v-4.736q0-1.768-.41-2.334-.41-.567-1.407-.567-.576 0-1.06.24-.482.239-.805.678-.254.342-.366.781-.112.44-.112 1.338V21.27zm9.443-13.516q0-.664.479-1.142.478-.479 1.142-.479.674 0 1.157.474.484.474.484 1.147 0 .674-.484 1.153-.483.478-1.157.478-.664 0-1.142-.488-.479-.488-.479-1.143zm3.018 13.516h-2.774v-9.58h2.774v9.58zm1.884-1.68l2.14-1.103q.107.556.575.879.469.322 1.162.322.684 0 1.075-.25.39-.248.39-.688 0-.693-1.386-1.162-.43-.146-.684-.244-1.69-.635-2.339-1.28-.65-.644-.65-1.59 0-1.407 1.104-2.276 1.104-.87 2.91-.87 1.29 0 2.232.518.942.518 1.372 1.465l-2.041 1.016q-.166-.537-.576-.816-.41-.278-1.026-.278-.615 0-.996.254-.38.254-.38.664 0 .713 1.894 1.328.224.068.342.107 1.572.518 2.236 1.206.664.689.664 1.753 0 1.426-1.103 2.266-1.104.84-2.979.84-1.484 0-2.534-.552-1.05-.552-1.402-1.509zm16.485 6.035l2.08-5.097-3.858-8.838h3.213l1.66 4.385q.167.41.274.942.107.532.166 1.187.098-.528.244-1.075.147-.547.361-1.162l1.456-4.277h3.183l-5.703 13.935h-3.076zm17.246-9.13q0-1.172-.684-1.87-.683-.699-1.836-.699-1.152 0-1.826.694-.674.693-.674 1.875 0 1.171.674 1.875.674.703 1.826.703 1.143 0 1.831-.703.689-.704.689-1.875zm2.832.02q0 2.206-1.509 3.671-1.509 1.465-3.823 1.465-2.334 0-3.848-1.465-1.513-1.465-1.513-3.672 0-2.197 1.523-3.672 1.523-1.474 3.838-1.474 2.324 0 3.828 1.455t1.504 3.691zm2.06-4.825h2.764v5.039q0 1.27.493 1.816.493.547 1.607.547 1.103 0 1.601-.551.498-.552.498-1.812v-5.04h2.784v5.04q0 2.53-1.182 3.726-1.182 1.196-3.662 1.196-2.53 0-3.716-1.192-1.187-1.191-1.187-3.73v-5.04zm15.167 0l-.06 2.46q.42-1.396 1.207-2.089.786-.693 1.948-.693.264 0 .87.097l.175.03-.42 2.988q-.312-.127-.63-.19-.317-.064-.669-.064-1.27 0-1.826.65-.556.649-.556 2.172v4.219h-2.784v-9.58h2.744zm21.123 0v9.424q0 1.513-.181 2.129-.18.615-.62 1.064-.625.674-1.602.996-.976.322-2.373.322-2.334 0-3.545-.742-1.21-.742-1.318-2.256h3.057q.068.557.507.82.44.264 1.3.264 1.132 0 1.635-.586.503-.585.503-1.953v-1.367q-.557.889-1.343 1.319-.786.43-1.86.43-1.973 0-3.155-1.383-1.181-1.381-1.181-3.725 0-2.383 1.152-3.73 1.152-1.348 3.184-1.348 1.045 0 1.86.483.815.483 1.362 1.421V11.69h2.618zm-2.52 4.775q0-1.27-.645-2.002-.644-.732-1.757-.732-1.143 0-1.787.727-.645.728-.645 2.007 0 1.28.635 1.992.635.713 1.777.713 1.143 0 1.782-.713.64-.712.64-1.992zm5.225-4.775h2.763v5.039q0 1.27.493 1.816.494.547 1.607.547 1.103 0 1.601-.551.499-.552.499-1.812v-5.04h2.783v5.04q0 2.53-1.182 3.726-1.182 1.196-3.662 1.196-2.53 0-3.716-1.192-1.186-1.191-1.186-3.73v-5.04zm12.285-3.936q0-.664.478-1.142.479-.479 1.143-.479.674 0 1.157.474t.483 1.147q0 .674-.483 1.153-.483.478-1.157.478-.664 0-1.143-.488-.478-.488-.478-1.143zm3.017 13.516h-2.773v-9.58h2.773v9.58zm9.883-4.805q0-1.289-.65-2.04-.649-.753-1.752-.753-1.133 0-1.782.738-.65.737-.65 2.036t.64 2.031q.64.732 1.772.732 1.153 0 1.787-.722.635-.723.635-2.022zm2.54-10.332V21.27h-2.696l.039-1.377q-.566.908-1.362 1.333-.796.425-1.939.425-1.904 0-3.071-1.416-1.167-1.416-1.167-3.74 0-2.432 1.147-3.79 1.148-1.357 3.189-1.357 1.045 0 1.836.479.79.478 1.484 1.513-.049-.351-.073-.776-.024-.425-.024-.972V6.133h2.636zm4.97 9.356h4.355q-.117-.908-.659-1.372-.542-.464-1.48-.464-.937 0-1.498.464-.562.464-.718 1.372zm7.11 1.68h-7.198q.166 1.035.752 1.547.586.513 1.592.513.762 0 1.313-.293.552-.293.923-.889l2.246 1.123q-.781 1.26-1.894 1.87-1.114.61-2.647.61-2.324 0-3.681-1.386-1.358-1.387-1.358-3.73 0-2.256 1.421-3.711 1.42-1.455 3.638-1.455 2.285 0 3.613 1.362 1.328 1.362 1.328 3.716 0 .127-.01.278-.01.151-.039.444z" fill="#00c8cf"/></svg>