<svg width="234" height="18" xmlns="http://www.w3.org/2000/svg"><path d="M.533 11.97l1.206-.558q.172.622.629.949.457.326 1.168.326.672 0 1.07-.374.396-.375.396-1.003 0-.819-1.358-1.46-.19-.095-.292-.14-1.537-.749-2.048-1.355-.51-.606-.51-1.482 0-1.136.77-1.84.772-.705 2.022-.705 1.029 0 1.72.396.693.397.96 1.14l-1.182.61q-.279-.439-.612-.642-.333-.203-.765-.203-.61 0-.968.317-.359.318-.359.85 0 .839 1.575 1.562l.19.09q1.377.634 1.892 1.24.514.606.514 1.514 0 1.32-.832 2.098-.831.778-2.247.778-1.187 0-1.945-.546-.759-.546-.994-1.562zm7.51-4.158H9.42v3.39q0 .876.362 1.257.362.38 1.174.38.813 0 1.174-.38.362-.381.362-1.257v-3.39h1.378v2.977q0 1.727-.692 2.508-.692.78-2.21.78-1.542 0-2.234-.774t-.692-2.514V7.812zm9.02 2.99q0 .92.472 1.486.473.564 1.222.564.781 0 1.21-.52.428-.52.428-1.48 0-.951-.447-1.488-.448-.536-1.229-.536-.78 0-1.219.52-.438.521-.438 1.454zm-1.334-6.81h1.378v4.804q.241-.571.771-.882.53-.311 1.267-.311 1.2 0 1.945.885.746.886.746 2.327 0 1.517-.733 2.39-.733.873-2.01.873-.634 0-1.126-.254-.492-.254-.86-.775v.781h-1.378V3.991zm6.875 8.746l1.143-.622q.127.45.47.686.342.235.882.235.463 0 .726-.213.264-.213.264-.58 0-.49-.94-.839-.317-.114-.488-.19-.965-.4-1.35-.813-.383-.412-.383-1.003 0-.806.631-1.307.632-.502 1.673-.502.698 0 1.196.257.499.257.727.733l-.977.673q-.108-.285-.378-.454-.27-.168-.625-.168-.394 0-.632.188-.238.187-.238.498 0 .47 1.067.857.336.12.52.197.832.33 1.19.745.359.416.359 1.038 0 .902-.654 1.413-.654.51-1.803.51-.882 0-1.466-.33t-.914-1.009zm10.721-4.76v1.548q-.317-.349-.74-.533-.421-.184-.91-.184-.844 0-1.352.546-.508.546-.508 1.447 0 .94.51 1.476.512.536 1.413.536.502 0 .895-.187.394-.187.692-.568v1.587q-.38.216-.815.324-.435.108-.924.108-1.416 0-2.307-.902-.892-.901-.892-2.336 0-1.453.923-2.345.924-.892 2.416-.892.47 0 .863.092t.736.282zm2.787-.178v.97q.222-.596.587-.881.365-.286.905-.286.292 0 .574.07t.555.203l-.495 1.168q-.177-.127-.384-.187-.206-.06-.46-.06-.686 0-.984.548-.298.55-.298 1.844v2.641h-1.378V7.8h1.378zM39.4 5.21q0-.35.257-.603.257-.254.613-.254.368 0 .612.244.244.245.244.613t-.247.619q-.248.25-.61.25-.355 0-.612-.257T39.4 5.21zm1.561 8.62h-1.377V7.812h1.377v6.018zm3.301-3.028q0 .92.473 1.486.473.564 1.222.564.78 0 1.21-.52.428-.52.428-1.48 0-.951-.448-1.488-.447-.536-1.228-.536-.78 0-1.219.52-.438.521-.438 1.454zm-1.333-6.81h1.378v4.804q.24-.571.77-.882.53-.311 1.267-.311 1.2 0 1.946.885.746.886.746 2.327 0 1.517-.734 2.39-.733.873-2.009.873-.634 0-1.126-.254-.492-.254-.86-.775v.781h-1.378V3.991zm13.362 6.772v.26h-4.812q.051.845.502 1.317.45.473 1.2.473.666 0 1.11-.279.445-.28.775-.901l1.162.647q-.508.908-1.257 1.352-.75.445-1.759.445-1.447 0-2.304-.883-.857-.882-.857-2.355 0-1.415.886-2.326.885-.911 2.275-.911 1.454 0 2.267.831.812.832.812 2.33zm-4.723-.666h3.295q-.083-.648-.495-.987-.413-.34-1.13-.34-.68 0-1.092.33-.413.33-.578.997zM63.35 13.83h-1.378V9.018h-1.054V7.812h1.054V5.534h1.378v2.278h1.053v1.206H63.35v4.812zm3.618 0H65.59V3.991h1.295v4.805q.413-.622.971-.907.559-.286 1.359-.286.673 0 1.146.213.472.212.74.631.158.248.228.578.07.33.07 1.155v3.65h-1.39v-3.091q0-1.187-.29-1.578-.288-.39-1.025-.39-.482 0-.86.178-.377.177-.593.501-.153.216-.213.556-.06.34-.06 1.082v2.742zm12.06-3.066v.26h-4.811q.05.845.501 1.317.45.473 1.2.473.666 0 1.11-.279.445-.28.775-.901l1.162.647q-.508.908-1.257 1.352-.749.445-1.758.445-1.448 0-2.304-.883-.857-.882-.857-2.355 0-1.415.885-2.326.886-.911 2.276-.911 1.453 0 2.266.831.812.832.812 2.33zm-4.722-.666H77.6q-.082-.648-.495-.987-.413-.34-1.13-.34-.68 0-1.092.33-.412.33-.577.997zm11.648 3.732h-1.378V9.018h-1.054V7.812h1.054V6.2q0-1.2.498-1.77.499-.572 1.546-.572.222 0 .457.032.235.031.476.101v1.244q-.165-.095-.333-.143-.168-.047-.34-.047-.495 0-.71.305-.216.304-.216 1.028v1.434H87.4v1.206h-1.447v4.812zm2.367-6.018H89.7v3.39q0 .876.362 1.257.361.38 1.174.38.812 0 1.174-.38.362-.381.362-1.257v-3.39h1.377v2.977q0 1.727-.691 2.508-.692.78-2.21.78-1.542 0-2.234-.774t-.692-2.514V7.812zm9.388 6.018h-1.377V9.018h-1.054V7.812h1.054V5.534h1.377v2.278h1.054v1.206H97.71v4.812zm2.197-6.018h1.377v3.39q0 .876.362 1.257.362.38 1.174.38.813 0 1.175-.38.361-.381.361-1.257v-3.39h1.378v2.977q0 1.727-.692 2.508-.692.78-2.209.78-1.542 0-2.234-.774t-.692-2.514V7.812zm9.064-.012v.97q.222-.596.587-.881.365-.286.905-.286.292 0 .574.07.283.07.556.203l-.495 1.168q-.178-.127-.384-.187-.207-.06-.46-.06-.686 0-.984.548-.299.55-.299 1.844v2.641h-1.377V7.8h1.377zm9.204 2.964v.26h-4.811q.05.845.501 1.317.45.473 1.2.473.666 0 1.11-.279.445-.28.775-.901l1.162.647q-.508.908-1.257 1.352-.749.445-1.758.445-1.448 0-2.304-.883-.857-.882-.857-2.355 0-1.415.885-2.326.886-.911 2.276-.911 1.453 0 2.266.831.812.832.812 2.33zm-4.722-.666h3.294q-.082-.648-.495-.987-.413-.34-1.13-.34-.68 0-1.092.33-.412.33-.577.997zm11.457 3.732h-1.377V7.812h1.295v.984q.412-.622.97-.907.56-.286 1.36-.286.672 0 1.145.213.473.212.74.631.158.248.228.578.07.33.07 1.155v3.65h-1.39v-3.091q0-1.187-.29-1.578-.288-.39-1.024-.39-.483 0-.86.178-.378.177-.594.501-.152.216-.213.556-.06.34-.06 1.082v2.742zm10.994-2.99q0-.838-.54-1.418-.539-.581-1.32-.581-.774 0-1.317.58-.542.581-.542 1.42 0 .837.542 1.418.543.58 1.317.58.775 0 1.318-.58.542-.58.542-1.419zm-5.173-.012q0-.66.25-1.248.251-.587.721-1.044.464-.45 1.067-.692.603-.241 1.263-.241.679 0 1.279.241.6.241 1.076.711.476.463.723 1.047.248.584.248 1.226 0 .666-.244 1.25-.245.584-.715 1.035-.495.476-1.098.72-.603.245-1.27.245-.653 0-1.256-.245-.603-.244-1.073-.708-.476-.47-.723-1.053-.248-.584-.248-1.244zm16.974-3.016l-3.13 6.38-1.39-3.13q-.159-.361-.26-.644-.102-.282-.184-.555-.14.412-.248.707-.108.296-.171.442l-1.428 3.18-3.117-6.38h1.466l1.352 2.901q.083.184.162.505.08.32.137.708.006-.229.076-.476.07-.248.235-.61l1.472-3.25h.115l1.498 3.25q.14.305.206.565.067.26.08.52.056-.342.145-.647.09-.304.203-.552l1.327-2.914h1.454z" fill="#fff"/></svg>