<svg width="263" height="38" xmlns="http://www.w3.org/2000/svg"><path d="M6.289 28.72H2.162V9.42h11.364v3.48H6.29v3.968h7.237v3.507H6.29v8.345zm10.045-12.933h3.731v6.803q0 1.713.666 2.452.666.738 2.169.738 1.49 0 2.162-.745.672-.745.672-2.445v-6.803h3.758v6.803q0 3.414-1.596 5.03-1.595 1.614-4.943 1.614-3.415 0-5.017-1.608-1.602-1.609-1.602-5.036v-6.803zM37.323 28.72h-3.758v-9.993H31.76v-2.94h1.806v-4.298h3.758v4.298h1.806v2.94h-1.806v9.993zm4.073-12.933h3.731v6.803q0 1.713.666 2.452.666.738 2.169.738 1.49 0 2.162-.745.672-.745.672-2.445v-6.803h3.758v6.803q0 3.414-1.596 5.03-1.595 1.614-4.943 1.614-3.415 0-5.017-1.608-1.602-1.609-1.602-5.036v-6.803zm20.475 0l-.08 3.322q.567-1.885 1.629-2.821 1.061-.936 2.63-.936.356 0 1.173.132l.237.04-.566 4.033q-.422-.171-.85-.257-.43-.085-.904-.085-1.714 0-2.465.876-.752.877-.752 2.934v5.695h-3.757V15.787h3.705zm17.072 6.486q0-1.582-.922-2.524-.923-.943-2.479-.943t-2.465.936q-.91.936-.91 2.531 0 1.582.91 2.531.91.95 2.465.95 1.542 0 2.472-.95.93-.949.93-2.53zm3.824.027q0 2.98-2.037 4.957-2.037 1.977-5.162 1.977-3.15 0-5.194-1.977-2.043-1.978-2.043-4.957 0-2.967 2.056-4.957 2.057-1.991 5.181-1.991 3.138 0 5.168 1.964 2.03 1.965 2.03 4.984zm18.852-11.997l-.145 4.14q-1.252-1.121-2.57-1.642-1.319-.52-2.822-.52-3.085 0-4.917 1.845-1.833 1.845-1.833 4.957 0 3.045 1.7 4.832 1.701 1.786 4.641 1.786 1.675 0 3.112-.56t2.663-1.681l-.027 4.232q-1.318.778-2.762 1.16-1.443.382-3.038.382-4.615 0-7.574-2.867-2.96-2.868-2.96-7.284 0-4.404 2.966-7.264Q91.02 8.958 95.7 8.958q1.569 0 3.032.33 1.463.329 2.887 1.015zm13.144 11.97q0-1.582-.923-2.524-.923-.943-2.478-.943-1.556 0-2.466.936-.91.936-.91 2.531 0 1.582.91 2.531.91.95 2.466.95 1.542 0 2.472-.95.93-.949.93-2.53zm3.823.027q0 2.98-2.036 4.957-2.037 1.977-5.162 1.977-3.15 0-5.194-1.977-2.044-1.978-2.044-4.957 0-2.967 2.057-4.957 2.057-1.991 5.181-1.991 3.138 0 5.168 1.964 2.03 1.965 2.03 4.984zm2.65-11.826q0-.897.646-1.543.646-.646 1.543-.646.91 0 1.562.64.653.64.653 1.549 0 .91-.653 1.556t-1.562.646q-.897 0-1.543-.66-.646-.659-.646-1.542zm4.074 18.246h-3.744V15.787h3.744V28.72zm7.567 0h-3.757V15.787h3.678v2.03q1.015-1.265 2.182-1.865 1.167-.6 2.59-.6 1.504 0 2.525.507 1.022.508 1.615 1.55.29.54.416 1.219.125.679.125 2.13V28.72h-3.757v-6.394q0-2.386-.554-3.15-.554-.766-1.898-.766-.778 0-1.43.323-.654.323-1.089.917-.342.461-.494 1.054-.152.594-.152 1.807V28.72z" fill="#00c8cf"/></svg>