<?xml version="1.0" encoding="UTF-8"?><svg xmlns="http://www.w3.org/2000/svg" id="Layer_1" data-name="Layer 1" viewBox="0 0 470.46 181" width="100%" height="100%"><defs><style>.cls-1{fill:#fff;}.cls-2{fill:#00a7ba;}</style></defs><title>карта</title><path class="cls-1" d="M88.52,33.85A57.45,57.45,0,1,1,47.89,50.68,57.27,57.27,0,0,1,88.52,33.85m0-15.62A72.89,72.89,0,1,0,116,23.59a72.81,72.81,0,0,0-27.49-5.35Z"/><path class="cls-2" d="M108,110.74A27.52,27.52,0,0,1,70.9,112.4q-.93-.78-1.81-1.66a27.52,27.52,0,0,1,0-38.87q.76-.76,1.56-1.45a27.49,27.49,0,0,1,42,7.76l12.13-9.94a43.35,43.35,0,0,0-5.89-7.32,43,43,0,0,0-60.37-.41l-.42.41a43,43,0,0,0,60.79,60.79,43.37,43.37,0,0,0,5.72-7.06l-12.11-9.92A27.42,27.42,0,0,1,108,110.74Z"/><path class="cls-1" d="M104,82.56H88.11v8.75h6l8.86,7.25H88.19v10.85A18.11,18.11,0,1,1,104,82.56Z"/><path class="cls-1" d="M191.4,109.41V72.58h26.07v6.9H199.24v7.73h17.84v6.9H199.24v15.3Z"/><path class="cls-1" d="M239.67,109.41V106a12.68,12.68,0,0,1-9.39,4c-5.85,0-8.62-3.2-8.62-8.39V82.74h7V98.92c0,3.7,1.93,4.92,4.92,4.92a7.85,7.85,0,0,0,6.07-3V82.74h7v26.67Z"/><path class="cls-1" d="M254,102.73V88.87h-4.42V82.74H254V75.45h7v7.29h5.41v6.13H261v12c0,1.71.88,3,2.43,3a3.53,3.53,0,0,0,2.43-.83l1.49,5.36c-1,.94-2.93,1.71-5.85,1.71C256.57,110.08,254,107.53,254,102.73Z"/><path class="cls-1" d="M288.1,109.41V106a12.68,12.68,0,0,1-9.39,4c-5.85,0-8.62-3.2-8.62-8.39V82.74h7V98.92c0,3.7,1.93,4.92,4.92,4.92a7.85,7.85,0,0,0,6.07-3V82.74h7v26.67Z"/><path class="cls-1" d="M301,109.41V82.74h7v3.59a11.7,11.7,0,0,1,8.5-4.25v6.85a9,9,0,0,0-1.93-.17c-2.32,0-5.41,1.33-6.57,3v17.62Z"/><path class="cls-1" d="M318,96c0-7.57,5.3-14,14.08-14s14.14,6.41,14.14,14-5.3,14-14.14,14S318,103.61,318,96ZM339,96c0-4.14-2.43-7.73-6.85-7.73s-6.79,3.59-6.79,7.73,2.43,7.79,6.79,7.79S339,100.24,339,96Z"/><path class="cls-1" d="M348.79,91c0-11.38,8.56-19.05,19.66-19.05a16.74,16.74,0,0,1,15.35,9l-6.74,3.31a10,10,0,0,0-8.62-5.36c-6.74,0-11.6,5.14-11.6,12.09s4.86,12.09,11.6,12.09a10,10,0,0,0,8.62-5.36L383.8,101a16.87,16.87,0,0,1-15.35,9.06C357.35,110.08,348.79,102.34,348.79,91Z"/><path class="cls-1" d="M385.52,96c0-7.57,5.3-14,14.08-14s14.14,6.41,14.14,14-5.3,14-14.14,14S385.52,103.61,385.52,96Zm20.93,0c0-4.14-2.43-7.73-6.85-7.73s-6.79,3.59-6.79,7.73,2.43,7.79,6.79,7.79S406.45,100.24,406.45,96Z"/><path class="cls-1" d="M417.21,75.67a4.17,4.17,0,0,1,8.34,0,4.17,4.17,0,1,1-8.34,0Zm.66,33.74V82.74h7v26.67Z"/><path class="cls-1" d="M448.75,109.41V93.29c0-3.7-1.93-5-4.92-5a7.8,7.8,0,0,0-6.07,3.09v18h-7V82.74h7v3.42a12.48,12.48,0,0,1,9.33-4.09c5.91,0,8.73,3.31,8.73,8.5v18.83Z"/></svg>