<svg width="268" height="31" xmlns="http://www.w3.org/2000/svg"><path d="M.902 20.253l2.041-.946q.29 1.053 1.064 1.606.773.553 1.976.553 1.14 0 1.81-.633.672-.634.672-1.698 0-1.385-2.299-2.47-.322-.161-.494-.237-2.6-1.267-3.464-2.293-.865-1.026-.865-2.508 0-1.923 1.305-3.116Q3.953 7.32 6.069 7.32q1.74 0 2.911.671 1.171.672 1.623 1.929l-1.999 1.03q-.472-.74-1.036-1.084-.564-.344-1.295-.344-1.03 0-1.638.537-.607.537-.607 1.44 0 1.418 2.664 2.642.204.097.323.15 2.33 1.075 3.2 2.1.87 1.027.87 2.563 0 2.234-1.406 3.55-1.408 1.316-3.803 1.316-2.009 0-3.293-.924-1.283-.924-1.68-2.642zm12.708-7.037h2.331v5.737q0 1.482.613 2.127.612.644 1.987.644t1.987-.644q.613-.645.613-2.127v-5.737h2.33v5.038q0 2.922-1.17 4.244-1.171 1.32-3.738 1.32-2.61 0-3.782-1.31-1.17-1.31-1.17-4.254v-5.038zm15.265 5.06q0 1.558.8 2.514.8.956 2.068.956 1.321 0 2.047-.881.725-.881.725-2.503 0-1.611-.758-2.52-.757-.907-2.078-.907-1.322 0-2.063.881-.741.88-.741 2.46zM26.619 6.75h2.331v8.131q.408-.966 1.305-1.493.897-.526 2.143-.526 2.03 0 3.293 1.498 1.262 1.499 1.262 3.937 0 2.568-1.24 4.045-1.241 1.477-3.4 1.477-1.075 0-1.907-.43-.833-.43-1.456-1.31V23.4h-2.33V6.75zm11.634 14.802l1.934-1.052q.214.762.794 1.16.58.397 1.494.397.784 0 1.23-.36.445-.36.445-.983 0-.827-1.59-1.418-.537-.193-.827-.322-1.632-.677-2.282-1.375-.65-.698-.65-1.697 0-1.364 1.069-2.213 1.068-.849 2.83-.849 1.182 0 2.025.435.843.436 1.23 1.241l-1.654 1.139q-.183-.484-.64-.768-.456-.285-1.057-.285-.666 0-1.07.317-.402.317-.402.843 0 .795 1.805 1.45.569.205.88.334 1.408.558 2.015 1.262.606.703.606 1.756 0 1.525-1.106 2.39-1.106.865-3.05.865-1.494 0-2.482-.559-.988-.558-1.547-1.708zm18.143-8.056v2.62q-.537-.59-1.251-.902-.714-.311-1.541-.311-1.43 0-2.289.924-.859.924-.859 2.449 0 1.59.865 2.498.865.907 2.39.907.849 0 1.515-.317.666-.317 1.17-.961v2.685q-.644.366-1.38.548-.736.183-1.563.183-2.395 0-3.905-1.525-1.509-1.526-1.509-3.954 0-2.46 1.563-3.969 1.563-1.51 4.087-1.51.795 0 1.461.157.666.155 1.246.478zm4.716-.301v1.643q.376-1.01.994-1.493.618-.483 1.53-.483.495 0 .973.118t.94.344L64.71 15.3q-.3-.214-.65-.317-.35-.102-.779-.102-1.16 0-1.665.93-.505.929-.505 3.12V23.4h-2.33V13.195h2.33zm5.565-4.383q0-.59.435-1.02.435-.43 1.036-.43.623 0 1.037.413.414.414.414 1.037t-.42 1.047q-.418.425-1.03.425-.602 0-1.037-.435-.435-.435-.435-1.037zM69.319 23.4h-2.33V13.216h2.33V23.4zm5.586-5.124q0 1.558.8 2.514.8.956 2.068.956 1.322 0 2.047-.881.725-.881.725-2.503 0-1.611-.757-2.52-.758-.907-2.079-.907-1.321 0-2.063.881-.74.88-.74 2.46zM72.65 6.75h2.331v8.131q.409-.966 1.306-1.493.897-.526 2.143-.526 2.03 0 3.292 1.498 1.262 1.499 1.262 3.937 0 2.568-1.24 4.045-1.241 1.477-3.4 1.477-1.074 0-1.907-.43-.832-.43-1.456-1.31V23.4h-2.33V6.75zm22.613 11.462v.44h-8.143q.086 1.429.849 2.229.762.8 2.03.8 1.128 0 1.88-.472.752-.473 1.31-1.526l1.966 1.096q-.86 1.536-2.127 2.288-1.267.752-2.975.752-2.45 0-3.9-1.493-1.45-1.493-1.45-3.986 0-2.395 1.499-3.937 1.498-1.541 3.85-1.541 2.46 0 3.836 1.407 1.375 1.407 1.375 3.943zm-7.992-1.128h5.575q-.14-1.096-.838-1.67-.698-.576-1.912-.576-1.15 0-1.848.56-.698.558-.977 1.686zm19.937 6.316h-2.331v-8.143h-1.783v-2.04h1.783V9.36h2.331v3.856h1.783v2.041h-1.783V23.4zm6.123 0H111V6.75h2.191v8.131q.699-1.052 1.644-1.536.945-.483 2.299-.483 1.138 0 1.939.36.8.36 1.251 1.069.269.419.387.977.118.559.118 1.955V23.4h-2.352v-5.231q0-2.01-.49-2.67-.488-.66-1.734-.66-.816 0-1.456.3-.639.301-1.004.849-.258.365-.36.94-.102.575-.102 1.831V23.4zm20.41-5.188v.44h-8.142q.086 1.429.848 2.229.763.8 2.03.8 1.128 0 1.88-.472.752-.473 1.311-1.526l1.966 1.096q-.86 1.536-2.127 2.288-1.268.752-2.976.752-2.449 0-3.9-1.493-1.45-1.493-1.45-3.986 0-2.395 1.5-3.937 1.498-1.541 3.85-1.541 2.46 0 3.835 1.407t1.375 3.943zm-7.992-1.128h5.575q-.14-1.096-.838-1.67-.698-.576-1.912-.576-1.15 0-1.847.56-.699.558-.978 1.686zM145.46 23.4h-2.331v-8.143h-1.783v-2.04h1.783v-2.73q0-2.03.843-2.996.843-.967 2.616-.967.376 0 .773.054.398.053.806.172v2.105q-.28-.161-.564-.242-.285-.08-.575-.08-.838 0-1.203.515-.365.516-.365 1.74v2.428h2.45v2.041h-2.45V23.4zm4.007-10.184h2.33v5.737q0 1.482.613 2.127.612.644 1.987.644t1.988-.644q.612-.645.612-2.127v-5.737h2.331v5.038q0 2.922-1.17 4.244-1.172 1.32-3.74 1.32-2.61 0-3.78-1.31-1.171-1.31-1.171-4.254v-5.038zM165.354 23.4h-2.33v-8.143h-1.784v-2.04h1.783V9.36h2.331v3.856h1.784v2.041h-1.784V23.4zm3.717-10.184h2.331v5.737q0 1.482.613 2.127.612.644 1.987.644t1.987-.644q.613-.645.613-2.127v-5.737h2.33v5.038q0 2.922-1.17 4.244-1.171 1.32-3.739 1.32-2.61 0-3.78-1.31-1.172-1.31-1.172-4.254v-5.038zm15.34-.021v1.643q.376-1.01.994-1.493.617-.483 1.53-.483.495 0 .973.118t.94.344l-.838 1.976q-.301-.214-.65-.317-.35-.102-.779-.102-1.16 0-1.665.93-.505.929-.505 3.12V23.4h-2.33V13.195h2.33zm15.576 5.017v.44h-8.142q.086 1.429.848 2.229.763.8 2.03.8 1.129 0 1.88-.472.752-.473 1.311-1.526l1.966 1.096q-.86 1.536-2.127 2.288-1.268.752-2.976.752-2.449 0-3.9-1.493-1.45-1.493-1.45-3.986 0-2.395 1.5-3.937 1.498-1.541 3.85-1.541 2.46 0 3.835 1.407t1.375 3.943zm-7.992-1.128h5.575q-.14-1.096-.838-1.67-.698-.576-1.912-.576-1.15 0-1.847.56-.699.558-.978 1.686zm19.39 6.316h-2.331V13.216h2.191v1.665q.698-1.052 1.644-1.536.945-.483 2.298-.483 1.14 0 1.94.36t1.25 1.069q.27.419.388.977.118.559.118 1.955V23.4h-2.353v-5.231q0-2.01-.488-2.67-.49-.66-1.735-.66-.817 0-1.456.3-.64.301-1.004.849-.258.365-.36.94-.102.575-.102 1.831V23.4zm18.605-5.06q0-1.418-.913-2.4-.913-.983-2.234-.983-1.31 0-2.23.983-.918.982-.918 2.4t.919 2.401q.918.983 2.229.983 1.31 0 2.229-.983.918-.983.918-2.4zm-8.755-.021q0-1.117.425-2.11.424-.995 1.219-1.768.784-.763 1.805-1.17 1.02-.41 2.137-.41 1.15 0 2.165.41 1.015.407 1.82 1.202.806.784 1.225 1.773.42.988.42 2.073 0 1.128-.414 2.116-.414.988-1.209 1.751-.838.806-1.858 1.22-1.02.413-2.149.413-1.106 0-2.127-.414-1.02-.413-1.815-1.197-.806-.795-1.225-1.784-.419-.988-.419-2.105zm28.725-5.103l-5.296 10.796-2.352-5.296q-.269-.612-.44-1.09-.173-.478-.312-.94-.237.698-.42 1.198-.182.5-.29.746l-2.416 5.382-5.275-10.796h2.482l2.288 4.91q.14.311.274.854.134.542.23 1.197.011-.386.13-.805.118-.42.397-1.032l2.492-5.5h.194l2.535 5.5q.236.516.349.956.113.44.134.881.097-.58.247-1.095.15-.516.344-.935l2.245-4.93h2.46z" fill="#fff"/></svg>