<svg width="312" height="86" xmlns="http://www.w3.org/2000/svg"><path d="M20.525 12.566l-.196 3.633q-1.53-1.302-3.232-1.953-1.703-.651-3.58-.651-3.633 0-5.91 2.331-2.279 2.331-2.279 6.04 0 3.587 2.218 5.918 2.217 2.331 5.593 2.331 1.967 0 3.746-.696t3.413-2.104v4.072q-1.453 1.044-3.163 1.559-1.71.514-3.709.514-2.543 0-4.7-.832-2.157-.833-3.791-2.452-1.62-1.59-2.49-3.747-.87-2.157-.87-4.594 0-2.437.87-4.579.87-2.141 2.52-3.761 1.65-1.635 3.784-2.475 2.134-.84 4.617-.84 1.952 0 3.723.568 1.771.567 3.436 1.718zm7.281 6.024v2.316q.53-1.423 1.4-2.104.87-.681 2.157-.681.697 0 1.37.166.674.167 1.325.485l-1.181 2.785q-.424-.303-.916-.447-.492-.143-1.097-.143-1.635 0-2.346 1.309-.712 1.31-.712 4.397v6.297h-3.285V18.59h3.285zm20.95.03L38.401 39.721h-3.376l3.936-7.992-5.268-13.109h3.633l2.634 7.433q.227.68.401 1.385.174.703.28 1.43.197-.757.939-2.407l.075-.181 3.542-7.66h3.557zm4.964 7.13q0 2.225 1.113 3.557 1.112 1.332 2.929 1.332 1.862 0 2.883-1.241 1.022-1.241 1.022-3.527 0-2.27-1.067-3.55-1.067-1.279-2.93-1.279-1.86 0-2.905 1.241-1.045 1.242-1.045 3.467zm.106 13.971h-3.284v-21.1h3.284v2.346q.575-1.363 1.84-2.104 1.263-.742 3.02-.742 2.86 0 4.638 2.111 1.779 2.112 1.779 5.548 0 3.618-1.748 5.699-1.749 2.081-4.791 2.081-1.514 0-2.687-.605-1.173-.606-2.05-1.847v8.613zm18.815-6.751h-3.285V21.496h-2.512V18.62h2.512v-5.434h3.285v5.434h2.513v2.876H72.64V32.97zm16.62-7.13q0-1.997-1.286-3.382-1.287-1.385-3.149-1.385-1.847 0-3.14 1.385-1.295 1.385-1.295 3.383t1.294 3.383q1.294 1.385 3.141 1.385t3.141-1.385q1.294-1.385 1.294-3.383zm-12.336-.03q0-1.574.598-2.974.598-1.4 1.718-2.49 1.105-1.075 2.543-1.65 1.438-.575 3.012-.575 1.62 0 3.05.575 1.43.575 2.566 1.695 1.135 1.105 1.725 2.498.59 1.393.59 2.921 0 1.59-.582 2.982-.583 1.393-1.703 2.468-1.18 1.135-2.619 1.718-1.438.582-3.027.582-1.56 0-2.997-.582-1.438-.583-2.558-1.688-1.136-1.12-1.726-2.513-.59-1.392-.59-2.967zm30-6.796v3.693q-.756-.832-1.763-1.271-1.006-.44-2.172-.44-2.013 0-3.224 1.303-1.21 1.301-1.21 3.45 0 2.241 1.218 3.52 1.218 1.28 3.368 1.28 1.195 0 2.134-.447.938-.447 1.65-1.355v3.784q-.908.515-1.945.772t-2.203.257q-3.375 0-5.502-2.15-2.127-2.148-2.127-5.57 0-3.466 2.203-5.592 2.202-2.127 5.76-2.127 1.12 0 2.058.22.938.219 1.756.673zm3.255-.394h3.285v8.083q0 2.09.863 2.997.862.909 2.8.909 1.937 0 2.8-.909.863-.908.863-2.997V18.62h3.285v7.1q0 4.117-1.65 5.979-1.65 1.861-5.268 1.861-3.678 0-5.328-1.846-1.65-1.847-1.65-5.994v-7.1zm21.615-.03v2.316q.53-1.423 1.4-2.104.87-.681 2.158-.681.696 0 1.37.166.673.167 1.324.485l-1.18 2.785q-.425-.303-.917-.447-.492-.143-1.097-.143-1.635 0-2.346 1.309-.712 1.31-.712 4.397v6.297h-3.284V18.59h3.284zm11.413 0v2.316q.53-1.423 1.4-2.104.871-.681 2.158-.681.696 0 1.37.166.673.167 1.324.485l-1.18 2.785q-.425-.303-.916-.447-.492-.143-1.098-.143-1.635 0-2.346 1.309-.712 1.31-.712 4.397v6.297h-3.284V18.59h3.284zm21.949 7.069v.62h-11.474q.121 2.014 1.196 3.141 1.075 1.128 2.86 1.128 1.59 0 2.65-.666 1.06-.666 1.846-2.15l2.77 1.545q-1.21 2.164-2.997 3.224-1.786 1.06-4.193 1.06-3.45 0-5.494-2.105-2.044-2.104-2.044-5.615 0-3.376 2.112-5.548 2.111-2.172 5.426-2.172 3.467 0 5.404 1.983 1.938 1.983 1.938 5.555zm-11.262-1.59h7.856q-.197-1.543-1.18-2.353-.985-.81-2.695-.81-1.62 0-2.604.787-.983.787-1.377 2.377zm17.967 8.901h-3.284V18.62h3.088v2.347q.983-1.484 2.315-2.165 1.332-.681 3.24-.681 1.604 0 2.732.507 1.128.507 1.763 1.506.379.59.545 1.378.167.787.167 2.754v8.704h-3.315v-7.372q0-2.83-.689-3.761t-2.445-.931q-1.15 0-2.05.424-.901.424-1.416 1.196-.363.514-.507 1.324-.144.81-.144 2.58v6.54zm25.657-13.956v3.693q-.757-.832-1.763-1.271-1.007-.44-2.173-.44-2.013 0-3.224 1.303-1.21 1.301-1.21 3.45 0 2.241 1.218 3.52 1.218 1.28 3.368 1.28 1.196 0 2.134-.447.939-.447 1.65-1.355v3.784q-.908.515-1.945.772t-2.202.257q-3.376 0-5.503-2.15-2.126-2.148-2.126-5.57 0-3.466 2.202-5.592 2.202-2.127 5.76-2.127 1.12 0 2.058.22.939.219 1.756.673zm3.073-6.6q0-.832.613-1.438.613-.605 1.46-.605.878 0 1.461.583.583.582.583 1.46t-.59 1.476q-.59.598-1.453.598-.848 0-1.461-.613-.613-.613-.613-1.46zm3.723 20.556h-3.284V18.62h3.284v14.35zm18.513-7.311v.62h-11.474q.121 2.014 1.196 3.141 1.075 1.128 2.86 1.128 1.59 0 2.65-.666 1.06-.666 1.846-2.15l2.77 1.545q-1.21 2.164-2.997 3.224-1.786 1.06-4.193 1.06-3.45 0-5.494-2.105-2.044-2.104-2.044-5.615 0-3.376 2.112-5.548 2.111-2.172 5.426-2.172 3.467 0 5.404 1.983 1.938 1.983 1.938 5.555zm-11.262-1.59h7.856q-.197-1.543-1.18-2.353-.985-.81-2.695-.81-1.62 0-2.604.787t-1.377 2.377zm13.033 6.297l2.724-1.483q.303 1.075 1.12 1.635.818.56 2.104.56 1.105 0 1.734-.507.628-.507.628-1.385 0-1.166-2.24-1.998-.757-.273-1.166-.454-2.3-.954-3.217-1.938-.915-.984-.915-2.391 0-1.923 1.506-3.119 1.506-1.195 3.988-1.195 1.665 0 2.854.613 1.188.613 1.733 1.748l-2.331 1.604q-.258-.68-.901-1.082-.643-.401-1.491-.401-.938 0-1.506.447-.568.446-.568 1.188 0 1.12 2.543 2.043.802.288 1.241.47 1.983.787 2.839 1.778.855.992.855 2.475 0 2.15-1.56 3.368-1.558 1.218-4.298 1.218-2.104 0-3.497-.787-1.392-.787-2.18-2.407zM15.772 62.02v14.35h-3.284v-1.862q-.878 1.241-2.051 1.847-1.173.605-2.687.605-3.042 0-4.79-2.081-1.75-2.081-1.75-5.699 0-3.436 1.787-5.548 1.786-2.111 4.662-2.111 1.756 0 3.005.734 1.249.734 1.824 2.112V62.02h3.284zm-3.193 7.13q0-2.225-1.037-3.467-1.037-1.24-2.899-1.24T5.714 65.72q-1.067 1.28-1.067 3.55 0 2.286 1.03 3.527 1.029 1.24 2.906 1.24 1.77 0 2.883-1.346 1.113-1.347 1.113-3.542zm11.02-7.16v2.316q.529-1.423 1.4-2.104.87-.681 2.156-.681.697 0 1.37.166.674.167 1.325.485l-1.181 2.785q-.424-.303-.916-.447-.492-.143-1.097-.143-1.635 0-2.346 1.309-.712 1.31-.712 4.397v6.297h-3.285V61.99h3.285zm21.947 7.069v.62H34.073q.12 2.014 1.196 3.141 1.074 1.128 2.86 1.128 1.59 0 2.65-.666 1.059-.666 1.846-2.15l2.77 1.545q-1.21 2.164-2.997 3.224-1.786 1.06-4.193 1.06-3.451 0-5.495-2.105-2.043-2.104-2.043-5.615 0-3.376 2.112-5.548 2.111-2.172 5.426-2.172 3.466 0 5.404 1.983 1.937 1.983 1.937 5.555zm-11.261-1.59h7.856q-.197-1.543-1.181-2.353-.984-.81-2.694-.81-1.62 0-2.604.787t-1.377 2.377zm37.857 1.59v.62H60.668q.121 2.014 1.196 3.141 1.074 1.128 2.86 1.128 1.59 0 2.65-.666 1.06-.666 1.846-2.15l2.77 1.545q-1.21 2.164-2.997 3.224-1.786 1.06-4.193 1.06-3.45 0-5.494-2.105-2.044-2.104-2.044-5.615 0-3.376 2.112-5.548 2.111-2.172 5.426-2.172 3.467 0 5.404 1.983 1.938 1.983 1.938 5.555zm-11.262-1.59h7.856q-.197-1.543-1.18-2.353-.985-.81-2.695-.81-1.62 0-2.604.787T60.88 67.47zm28.184-5.449v14.35H85.78v-1.862q-.878 1.241-2.051 1.847-1.173.605-2.687.605-3.042 0-4.79-2.081-1.75-2.081-1.75-5.699 0-3.436 1.787-5.548 1.786-2.111 4.662-2.111 1.756 0 3.005.734 1.249.734 1.824 2.112V62.02h3.284zm-3.193 7.13q0-2.225-1.037-3.467-1.037-1.24-2.899-1.24t-2.929 1.278q-1.067 1.28-1.067 3.55 0 2.286 1.03 3.527 1.029 1.24 2.906 1.24 1.77 0 2.883-1.346 1.113-1.347 1.113-3.542zm6.085 4.616l2.724-1.483q.303 1.075 1.12 1.635.818.56 2.104.56 1.105 0 1.733-.507.629-.507.629-1.385 0-1.166-2.24-1.998-.757-.273-1.166-.454-2.3-.954-3.217-1.938-.915-.984-.915-2.391 0-1.923 1.506-3.119 1.506-1.195 3.988-1.195 1.665 0 2.853.613 1.189.613 1.734 1.748l-2.331 1.604q-.258-.68-.901-1.082-.643-.401-1.491-.401-.939 0-1.506.447-.568.446-.568 1.188 0 1.12 2.543 2.043.802.288 1.241.47 1.983.787 2.839 1.778.855.992.855 2.475 0 2.15-1.56 3.368-1.558 1.218-4.298 1.218-2.104 0-3.497-.787-1.392-.787-2.18-2.407zm27.67-11.746l-10.354 21.101h-3.376l3.936-7.992-5.268-13.109h3.633l2.634 7.433q.227.68.401 1.385.174.703.28 1.43.197-.757.939-2.407l.075-.181 3.542-7.66h3.557z" fill="#fff"/></svg>