<svg width="263" height="86" xmlns="http://www.w3.org/2000/svg"><path d="M7.22 32.97H2.482V10.81H15.53v3.996H7.22v4.556h8.31v4.026H7.22v9.582zm11.534-14.85h4.284v7.811q0 1.968.764 2.816.765.848 2.49.848 1.71 0 2.483-.856.772-.855.772-2.808v-7.81h4.314v7.81q0 3.92-1.832 5.775-1.831 1.854-5.676 1.854-3.92 0-5.76-1.846-1.839-1.847-1.839-5.783v-7.81zm24.098 14.85h-4.314V21.496h-2.074v-3.375h2.074v-4.935h4.314v4.935h2.074v3.375h-2.074V32.97zm4.677-14.85h4.284v7.811q0 1.968.764 2.816.765.848 2.49.848 1.71 0 2.483-.856.772-.855.772-2.808v-7.81h4.314v7.81q0 3.92-1.832 5.775-1.831 1.854-5.676 1.854-3.92 0-5.76-1.846-1.839-1.847-1.839-5.783v-7.81zm23.508 0l-.091 3.815q.65-2.164 1.87-3.239 1.218-1.075 3.019-1.075.409 0 1.347.152l.273.045-.651 4.632q-.485-.197-.977-.295-.492-.099-1.036-.099-1.968 0-2.831 1.007t-.863 3.368v6.539h-4.314V18.12h4.254zm19.602 7.448q0-1.816-1.06-2.899-1.06-1.082-2.846-1.082t-2.83 1.075q-1.045 1.075-1.045 2.906 0 1.817 1.045 2.906 1.044 1.09 2.83 1.09 1.771 0 2.839-1.09 1.067-1.09 1.067-2.906zm4.39.03q0 3.421-2.34 5.692-2.338 2.27-5.925 2.27-3.618 0-5.964-2.27-2.346-2.27-2.346-5.692 0-3.405 2.36-5.691 2.362-2.286 5.95-2.286 3.602 0 5.933 2.256 2.331 2.255 2.331 5.721zm21.645-13.774l-.167 4.753q-1.438-1.287-2.951-1.885-1.514-.597-3.24-.597-3.542 0-5.646 2.119t-2.104 5.691q0 3.497 1.953 5.548 1.953 2.05 5.328 2.05 1.923 0 3.572-.643 1.65-.643 3.058-1.93l-.03 4.86q-1.514.892-3.171 1.331-1.658.44-3.49.44-5.297 0-8.695-3.293-3.399-3.292-3.399-8.363 0-5.056 3.406-8.34 3.406-3.285 8.78-3.285 1.8 0 3.48.378 1.681.379 3.316 1.166zm15.091 13.744q0-1.816-1.06-2.899-1.059-1.082-2.845-1.082-1.786 0-2.83 1.075-1.045 1.075-1.045 2.906 0 1.817 1.044 2.906 1.045 1.09 2.83 1.09 1.772 0 2.839-1.09t1.067-2.906zm4.39.03q0 3.421-2.339 5.692-2.338 2.27-5.926 2.27-3.618 0-5.964-2.27-2.346-2.27-2.346-5.692 0-3.405 2.361-5.691 2.362-2.286 5.95-2.286 3.602 0 5.933 2.256 2.33 2.255 2.33 5.721zm3.042-13.577q0-1.03.742-1.771.742-.742 1.771-.742 1.044 0 1.794.734.749.734.749 1.779 0 1.044-.75 1.786-.749.742-1.793.742-1.03 0-1.771-.757-.742-.757-.742-1.771zm4.678 20.949h-4.3V18.12h4.3v14.85zm8.688 0h-4.314V18.12h4.223v2.332q1.166-1.453 2.505-2.142 1.34-.689 2.975-.689 1.725 0 2.898.583t1.855 1.779q.333.62.476 1.4.144.78.144 2.444v9.143h-4.314v-7.341q0-2.74-.636-3.618-.635-.878-2.18-.878-.892 0-1.642.37-.749.372-1.248 1.053-.394.53-.568 1.21-.174.682-.174 2.075v7.129zm24.158-20.95q0-1.029.742-1.77.742-.742 1.77-.742 1.045 0 1.795.734.749.734.749 1.779 0 1.044-.75 1.786-.749.742-1.793.742-1.03 0-1.771-.757-.742-.757-.742-1.771zm4.677 20.95H177.1V18.12h4.298v14.85zm2.922-2.604l3.315-1.71q.166.863.893 1.362.726.5 1.801.5 1.06 0 1.665-.386.606-.386.606-1.067 0-1.075-2.15-1.802-.666-.227-1.06-.378-2.618-.984-3.625-1.983-1.006-.999-1.006-2.467 0-2.18 1.71-3.527t4.511-1.347q1.998 0 3.459.802 1.46.802 2.126 2.27l-3.163 1.575q-.257-.833-.893-1.264-.636-.432-1.59-.432-.953 0-1.544.394-.59.394-.59 1.03 0 1.104 2.937 2.058.348.106.53.166 2.436.803 3.466 1.87 1.03 1.067 1.03 2.717 0 2.21-1.711 3.512-1.71 1.301-4.617 1.301-2.3 0-3.928-.855-1.627-.855-2.172-2.339zM2.543 83.121l3.224-7.901-5.979-13.7h4.98l2.573 6.797q.258.636.424 1.461.167.825.257 1.84.152-.818.379-1.666t.56-1.801l2.255-6.63h4.935l-8.84 21.6H2.543zm26.731-14.153q0-1.816-1.06-2.899-1.059-1.082-2.845-1.082-1.786 0-2.83 1.075-1.045 1.075-1.045 2.906 0 1.817 1.045 2.906 1.044 1.09 2.83 1.09 1.771 0 2.838-1.09 1.067-1.09 1.067-2.906zm4.39.03q0 3.421-2.339 5.692-2.338 2.27-5.926 2.27-3.617 0-5.963-2.27-2.347-2.27-2.347-5.692 0-3.405 2.362-5.691 2.361-2.286 5.948-2.286 3.603 0 5.934 2.256 2.331 2.255 2.331 5.721zm3.194-7.477h4.284v7.81q0 1.968.764 2.816.764.848 2.49.848 1.71 0 2.482-.856.772-.855.772-2.808v-7.81h4.314v7.81q0 3.92-1.831 5.775-1.832 1.854-5.676 1.854-3.92 0-5.76-1.846-1.84-1.847-1.84-5.783v-7.81zm23.507 0l-.09 3.814q.65-2.164 1.869-3.239 1.218-1.075 3.02-1.075.408 0 1.347.152l.272.045-.65 4.632q-.485-.197-.977-.295-.492-.099-1.037-.099-1.968 0-2.83 1.007-.863 1.007-.863 3.368v6.539h-4.314V61.52h4.253zm32.741 0v14.607q0 2.346-.28 3.3-.28.953-.961 1.65-.969 1.044-2.483 1.543-1.513.5-3.678.5-3.618 0-5.495-1.15-1.876-1.15-2.043-3.497h4.738q.106.863.787 1.271.681.41 2.013.41 1.756 0 2.536-.909.779-.908.779-3.027v-2.12q-.863 1.378-2.081 2.044-1.219.666-2.884.666-3.057 0-4.889-2.142-1.832-2.142-1.832-5.775 0-3.693 1.787-5.782 1.786-2.089 4.934-2.089 1.62 0 2.884.75 1.264.749 2.111 2.202v-2.452h4.057zm-3.905 7.402q0-1.968-1-3.103-.998-1.136-2.724-1.136-1.77 0-2.77 1.128-.999 1.128-.999 3.11 0 1.984.984 3.089t2.755 1.105q1.77 0 2.762-1.105t.992-3.088zm8.098-7.402h4.284v7.81q0 1.968.764 2.816.764.848 2.49.848 1.71 0 2.482-.856.772-.855.772-2.808v-7.81h4.314v7.81q0 3.92-1.831 5.775-1.832 1.854-5.677 1.854-3.92 0-5.76-1.846Q97.3 73.267 97.3 69.33v-7.81zm19.042-6.1q0-1.03.742-1.771.741-.742 1.77-.742 1.045 0 1.794.734.75.734.75 1.779 0 1.044-.75 1.786t-1.793.742q-1.03 0-1.771-.757-.742-.757-.742-1.771zm4.677 20.949h-4.299V61.52h4.3v14.85zm15.318-7.447q0-1.998-1.006-3.164-1.007-1.165-2.717-1.165-1.756 0-2.763 1.142-1.006 1.143-1.006 3.156 0 2.014.991 3.149.992 1.135 2.748 1.135 1.786 0 2.77-1.12.983-1.12.983-3.133zm3.936-16.015V76.37h-4.178l.06-2.134q-.877 1.407-2.11 2.066-1.234.658-3.005.658-2.952 0-4.76-2.194-1.81-2.195-1.81-5.798 0-3.769 1.779-5.873 1.778-2.104 4.942-2.104 1.62 0 2.846.742 1.226.741 2.3 2.346-.075-.545-.113-1.203-.038-.659-.038-1.506v-8.462h4.087zm7.705 14.501h6.75q-.181-1.408-1.021-2.127-.84-.719-2.293-.719-1.454 0-2.324.72-.87.718-1.112 2.126zm11.02 2.604H147.84q.258 1.604 1.166 2.399.908.794 2.467.794 1.18 0 2.036-.454.855-.454 1.43-1.377l3.482 1.74q-1.211 1.953-2.937 2.9-1.725.945-4.102.945-3.602 0-5.706-2.15-2.104-2.148-2.104-5.781 0-3.497 2.202-5.752 2.203-2.256 5.639-2.256 3.542 0 5.6 2.112 2.059 2.112 2.059 5.76 0 .196-.015.43-.015.235-.06.69z" fill="#00c8cf"/></svg>