<svg width="271" height="74" xmlns="http://www.w3.org/2000/svg"><path d="M17.877 10.949l-.171 3.164q-1.332-1.134-2.815-1.701-1.483-.567-3.118-.567-3.164 0-5.148 2.03-1.984 2.03-1.984 5.26 0 3.125 1.931 5.155 1.931 2.03 4.871 2.03 1.714 0 3.263-.606 1.55-.606 2.973-1.832v3.546q-1.265.91-2.755 1.358-1.49.448-3.23.448-2.215 0-4.094-.725-1.878-.725-3.302-2.136-1.41-1.384-2.169-3.263-.758-1.878-.758-4 0-2.123.758-3.989.758-1.865 2.195-3.276 1.437-1.424 3.296-2.156 1.859-.731 4.021-.731 1.7 0 3.243.494 1.543.495 2.993 1.497zm6.341 5.247v2.017q.462-1.24 1.22-1.833t1.878-.593q.607 0 1.194.145.586.145 1.153.422l-1.028 2.426q-.37-.264-.798-.39-.428-.125-.956-.125-1.423 0-2.043 1.14-.62 1.141-.62 3.83v5.485h-2.86V16.196h2.86zm18.246.026L33.447 34.6h-2.94l3.428-6.961-4.588-11.417h3.164l2.294 6.473q.197.593.35 1.206.15.613.243 1.246.171-.659.817-2.096l.066-.158 3.085-6.671h3.098zm4.325 6.21q0 1.937.969 3.098.969 1.16 2.55 1.16 1.622 0 2.512-1.081.89-1.081.89-3.072 0-1.978-.93-3.092-.929-1.114-2.55-1.114-1.622 0-2.532 1.081-.91 1.081-.91 3.02zM46.88 34.6H44.02V16.222h2.86v2.043q.502-1.186 1.603-1.832 1.1-.646 2.63-.646 2.491 0 4.04 1.839 1.55 1.84 1.55 4.832 0 3.15-1.523 4.963-1.523 1.813-4.173 1.813-1.318 0-2.34-.527-1.021-.528-1.786-1.609V34.6zm16.387-5.88h-2.86v-9.993h-2.19v-2.505h2.19v-4.733h2.86v4.733h2.189v2.505h-2.189v9.993zm14.476-6.21q0-1.74-1.121-2.946-1.12-1.206-2.742-1.206-1.609 0-2.736 1.206-1.127 1.206-1.127 2.947 0 1.74 1.127 2.946 1.127 1.206 2.736 1.206 1.608 0 2.735-1.206 1.128-1.206 1.128-2.946zm-10.745-.026q0-1.37.52-2.59.522-1.22 1.497-2.17.963-.935 2.215-1.436 1.252-.501 2.623-.501 1.411 0 2.657.5 1.246.502 2.235 1.477.988.963 1.503 2.176.514 1.213.514 2.544 0 1.384-.508 2.597-.507 1.213-1.483 2.15-1.028.988-2.28 1.496-1.253.507-2.638.507-1.357 0-2.61-.507-1.252-.508-2.228-1.47-.989-.976-1.503-2.189Q67 23.855 67 22.484zm26.13-5.92v3.218q-.66-.726-1.536-1.108-.877-.382-1.892-.382-1.753 0-2.808 1.134-1.055 1.133-1.055 3.005 0 1.952 1.062 3.066 1.06 1.114 2.933 1.114 1.042 0 1.859-.39.817-.388 1.437-1.18v3.297q-.791.448-1.694.672-.903.224-1.918.224-2.94 0-4.793-1.872-1.852-1.872-1.852-4.851 0-3.02 1.918-4.872 1.918-1.852 5.017-1.852.975 0 1.793.191.817.191 1.529.587zm2.834-.342h2.861v7.04q0 1.82.752 2.61.751.791 2.439.791 1.687 0 2.439-.79.751-.792.751-2.611v-7.04h2.86v6.183q0 3.586-1.436 5.208-1.437 1.621-4.588 1.621-3.204 0-4.64-1.608-1.438-1.609-1.438-5.22v-6.184zm18.827-.026v2.017q.461-1.24 1.219-1.833t1.879-.593q.606 0 1.193.145.586.145 1.153.422l-1.028 2.426q-.37-.264-.798-.39-.428-.125-.955-.125-1.424 0-2.044 1.14-.62 1.141-.62 3.83v5.485h-2.86V16.196h2.86zm9.94 0v2.017q.461-1.24 1.22-1.833.758-.593 1.878-.593.607 0 1.193.145.587.145 1.154.422l-1.029 2.426q-.369-.264-.797-.39-.429-.125-.956-.125-1.424 0-2.043 1.14-.62 1.141-.62 3.83v5.485h-2.86V16.196h2.86zm19.116 6.156v.54h-9.993q.105 1.754 1.042 2.736.936.983 2.491.983 1.385 0 2.307-.58.923-.58 1.609-1.873l2.412 1.345q-1.054 1.885-2.61 2.808-1.556.923-3.652.923-3.006 0-4.785-1.832-1.78-1.833-1.78-4.891 0-2.94 1.839-4.832t4.726-1.892q3.02 0 4.707 1.727 1.687 1.727 1.687 4.838zm-9.808-1.384h6.842q-.172-1.345-1.028-2.05-.857-.705-2.347-.705-1.41 0-2.268.685-.857.686-1.2 2.07zm15.649 7.752h-2.861V16.222h2.69v2.043q.856-1.292 2.016-1.885 1.16-.593 2.822-.593 1.397 0 2.38.442.981.441 1.535 1.311.33.514.475 1.2.145.686.145 2.4v7.58H156V22.3q0-2.466-.6-3.277-.6-.81-2.129-.81-1.001 0-1.786.369-.784.369-1.233 1.041-.316.449-.441 1.154-.125.705-.125 2.248v5.695zm22.346-12.155v3.217q-.66-.726-1.536-1.108-.877-.382-1.892-.382-1.753 0-2.808 1.134-1.055 1.133-1.055 3.005 0 1.952 1.061 3.066 1.062 1.114 2.934 1.114 1.041 0 1.859-.39.817-.388 1.437-1.18v3.297q-.791.448-1.694.672-.903.224-1.919.224-2.94 0-4.792-1.872-1.852-1.872-1.852-4.851 0-3.02 1.918-4.872 1.918-1.852 5.016-1.852.976 0 1.793.191.818.191 1.53.587zm2.676-5.748q0-.725.534-1.253.534-.527 1.272-.527.765 0 1.272.507.508.508.508 1.273 0 .764-.514 1.285-.514.52-1.266.52-.738 0-1.272-.533-.534-.534-.534-1.272zm3.243 17.903h-2.86V16.222h2.86V28.72zm16.124-6.368v.54h-9.993q.105 1.754 1.041 2.736.936.983 2.492.983 1.384 0 2.307-.58t1.608-1.873l2.413 1.345q-1.055 1.885-2.61 2.808-1.556.923-3.652.923-3.006 0-4.786-1.832-1.78-1.833-1.78-4.891 0-2.94 1.84-4.832 1.838-1.892 4.726-1.892 3.019 0 4.706 1.727 1.688 1.727 1.688 4.838zm-9.809-1.384h6.842q-.171-1.345-1.028-2.05-.857-.705-2.347-.705-1.41 0-2.267.685-.857.686-1.2 2.07zm11.351 5.484l2.373-1.292q.264.936.976 1.424.712.488 1.832.488.963 0 1.51-.442.547-.441.547-1.206 0-1.015-1.951-1.74-.66-.237-1.015-.396-2.004-.83-2.802-1.687-.797-.857-.797-2.083 0-1.674 1.311-2.716 1.312-1.041 3.474-1.041 1.45 0 2.485.533 1.035.534 1.51 1.523l-2.03 1.398q-.225-.594-.785-.943-.56-.35-1.298-.35-.818 0-1.312.39-.495.388-.495 1.034 0 .976 2.215 1.78.699.25 1.081.409 1.727.685 2.472 1.549.745.864.745 2.156 0 1.872-1.358 2.933-1.358 1.061-3.744 1.061-1.833 0-3.045-.685-1.213-.686-1.899-2.097zm32.84-10.23V28.72h-2.86v-1.622q-.765 1.081-1.787 1.609-1.021.527-2.34.527-2.65 0-4.172-1.813-1.523-1.812-1.523-4.963 0-2.993 1.556-4.832 1.555-1.84 4.06-1.84 1.53 0 2.617.64 1.088.64 1.589 1.84v-2.044h2.86zm-2.781 6.21q0-1.939-.903-3.02-.903-1.08-2.525-1.08-1.622 0-2.551 1.113-.93 1.114-.93 3.092 0 1.99.897 3.072.897 1.08 2.531 1.08 1.543 0 2.512-1.173.969-1.173.969-3.085zm9.597-6.236v2.017q.462-1.24 1.22-1.833t1.879-.593q.606 0 1.193.145.586.145 1.153.422l-1.028 2.426q-.37-.264-.798-.39-.428-.125-.956-.125-1.423 0-2.043 1.14-.62 1.141-.62 3.83v5.485h-2.86V16.196h2.86zm19.117 6.156v.54h-9.994q.106 1.754 1.042 2.736.936.983 2.492.983 1.384 0 2.307-.58t1.608-1.873l2.413 1.345q-1.055 1.885-2.61 2.808-1.556.923-3.652.923-3.006 0-4.786-1.832-1.78-1.833-1.78-4.891 0-2.94 1.84-4.832 1.838-1.892 4.726-1.892 3.019 0 4.706 1.727 1.688 1.727 1.688 4.838zm-9.809-1.384h6.842q-.171-1.345-1.028-2.05-.857-.705-2.347-.705-1.41 0-2.267.685-.857.686-1.2 2.07zM5.51 66.52H2.65v-9.993H.46v-2.505H2.65v-4.733h2.86v4.733H7.7v2.505H5.51v9.993zm7.515 0h-2.86V46.085h2.689v9.98q.857-1.292 2.017-1.885t2.821-.593q1.398 0 2.38.442.982.441 1.536 1.311.33.514.475 1.2.145.686.145 2.4v7.58H19.34V60.1q0-2.466-.6-3.277-.6-.81-2.129-.81-1.002 0-1.786.369t-1.233 1.041q-.316.449-.441 1.154-.126.705-.126 2.248v5.695zm25.05-6.368v.54H28.08q.106 1.754 1.042 2.736.936.983 2.491.983 1.385 0 2.307-.58.923-.58 1.609-1.873l2.412 1.345q-1.054 1.885-2.61 2.808-1.556.923-3.652.923-3.006 0-4.785-1.832-1.78-1.833-1.78-4.891 0-2.94 1.839-4.832t4.726-1.892q3.02 0 4.707 1.727 1.687 1.727 1.687 4.838zm-9.81-1.384h6.843q-.171-1.345-1.028-2.05-.857-.705-2.347-.705-1.41 0-2.268.685-.857.686-1.2 2.07zm24.193 7.752h-2.861v-9.993h-2.189v-2.505h2.189v-3.349q0-2.491 1.035-3.678 1.035-1.186 3.21-1.186.461 0 .949.065.488.066.989.211v2.584q-.343-.197-.692-.296-.35-.1-.706-.1-1.028 0-1.476.634-.448.633-.448 2.135v2.98h3.005v2.505h-3.005v9.993zm4.917-12.498h2.86v7.04q0 1.82.752 2.61.752.791 2.44.791 1.687 0 2.438-.79.752-.792.752-2.611v-7.04h2.86v6.183q0 3.586-1.436 5.208-1.437 1.621-4.588 1.621-3.204 0-4.641-1.608-1.437-1.609-1.437-5.22v-6.184zM76.874 66.52h-2.861v-9.993h-2.189v-2.505h2.189v-4.733h2.86v4.733h2.189v2.505h-2.188v9.993zm4.561-12.498h2.86v7.04q0 1.82.752 2.61.752.791 2.44.791 1.687 0 2.438-.79.752-.792.752-2.611v-7.04h2.86v6.183q0 3.586-1.436 5.208-1.437 1.621-4.588 1.621-3.204 0-4.64-1.608-1.438-1.609-1.438-5.22v-6.184zm18.826-.026v2.017q.462-1.24 1.22-1.833t1.878-.593q.607 0 1.193.145.587.145 1.154.422l-1.028 2.426q-.37-.264-.798-.39-.428-.125-.956-.125-1.424 0-2.043 1.14-.62 1.141-.62 3.83v5.485h-2.86V53.996h2.86zm19.116 6.156v.54h-9.993q.106 1.754 1.042 2.736.936.983 2.491.983 1.385 0 2.308-.58.922-.58 1.608-1.873l2.413 1.345q-1.055 1.885-2.61 2.808-1.556.923-3.653.923-3.005 0-4.785-1.832-1.78-1.833-1.78-4.891 0-2.94 1.84-4.832 1.838-1.892 4.725-1.892 3.02 0 4.707 1.727 1.687 1.727 1.687 4.838zm-9.808-1.384h6.842q-.171-1.345-1.028-2.05-.857-.705-2.347-.705-1.41 0-2.267.685-.857.686-1.2 2.07zm45.958 2.492h-27v-1.925h27v1.925zm13.381 5.26h-2.86v-9.993h-2.19v-2.505h2.19v-3.349q0-2.491 1.034-3.678 1.035-1.186 3.21-1.186.462 0 .95.065.487.066.988.211v2.584q-.342-.197-.692-.296-.349-.1-.705-.1-1.028 0-1.477.634-.448.633-.448 2.135v2.98h3.006v2.505h-3.006v9.993zm4.918-12.498h2.86v7.04q0 1.82.752 2.61.751.791 2.439.791 1.687 0 2.439-.79.751-.792.751-2.611v-7.04h2.861v6.183q0 3.586-1.437 5.208-1.437 1.621-4.588 1.621-3.203 0-4.64-1.608-1.437-1.609-1.437-5.22v-6.184zm19.498 12.498h-2.86v-9.993h-2.19v-2.505h2.19v-4.733h2.86v4.733h2.189v2.505h-2.189v9.993zm4.562-12.498h2.86v7.04q0 1.82.752 2.61.752.791 2.439.791 1.688 0 2.439-.79.751-.792.751-2.611v-7.04h2.861v6.183q0 3.586-1.437 5.208-1.437 1.621-4.588 1.621-3.203 0-4.64-1.608-1.437-1.609-1.437-5.22v-6.184zm18.826-.026v2.017q.461-1.24 1.22-1.833.757-.593 1.878-.593.607 0 1.193.145.587.145 1.154.422l-1.029 2.426q-.369-.264-.797-.39-.429-.125-.956-.125-1.424 0-2.043 1.14-.62 1.141-.62 3.83v5.485h-2.86V53.996h2.86zm19.116 6.156v.54h-9.993q.105 1.754 1.041 2.736.936.983 2.492.983 1.384 0 2.307-.58t1.609-1.873l2.412 1.345q-1.054 1.885-2.61 2.808-1.556.923-3.652.923-3.006 0-4.786-1.832-1.78-1.833-1.78-4.891 0-2.94 1.84-4.832 1.839-1.892 4.726-1.892 3.02 0 4.707 1.727 1.687 1.727 1.687 4.838zm-9.808-1.384h6.842q-.172-1.345-1.029-2.05-.856-.705-2.346-.705-1.41 0-2.268.685-.857.686-1.2 2.07zm20.685-10.151q0-.725.534-1.253.533-.527 1.272-.527.764 0 1.272.507.508.508.508 1.273 0 .764-.515 1.285-.514.52-1.265.52-.739 0-1.272-.533-.534-.534-.534-1.272zm3.243 17.903h-2.861V54.022h2.86V66.52zm2.65-2.268l2.373-1.292q.263.936.975 1.424.712.488 1.833.488.962 0 1.51-.442.546-.441.546-1.206 0-1.015-1.95-1.74-.66-.237-1.016-.396-2.004-.83-2.801-1.687-.798-.857-.798-2.083 0-1.674 1.312-2.716 1.312-1.041 3.474-1.041 1.45 0 2.485.533 1.035.534 1.51 1.523l-2.031 1.398q-.224-.594-.784-.943-.56-.35-1.299-.35-.817 0-1.312.39-.494.388-.494 1.034 0 .976 2.215 1.78.698.25 1.08.409 1.728.685 2.473 1.549.745.864.745 2.156 0 1.872-1.358 2.933-1.358 1.061-3.744 1.061-1.833 0-3.046-.685-1.213-.686-1.898-2.097z" fill="#fff"/></svg>