<?xml version="1.0" encoding="UTF-8"?><svg xmlns="http://www.w3.org/2000/svg" xmlns:xlink="http://www.w3.org/1999/xlink" id="Layer_1" data-name="Layer 1" viewBox="0 0 1296 418.12" width="100%" height="100%"><defs><style>.cls-1{fill:#fff;}.cls-2{fill:#ccc;}.cls-3{fill:url(#linear-gradient);}</style><linearGradient id="linear-gradient" x1="1229.57" y1="-5612.5" x2="1235.41" y2="-5612.5" gradientTransform="matrix(36.12, 0, 0, -4.2, -43471.56, -23262.06)" gradientUnits="userSpaceOnUse"><stop offset="0" stop-color="#ffc900"/><stop offset="1" stop-color="#ff6d03"/></linearGradient></defs><title>logo</title><path class="cls-1" d="M273,249.29c-13.41,48.77-60.48,84.78-116.5,84.78S53.41,298.06,40,249.29q36.44,19.35,65.85,19.95t77.48-17Z"/><path class="cls-2" d="M211.43,215.24l-.06-.07c-.29-.32-.63-.43-.88-.7-.67-.74-1.26-.89-1.63-1.77a4,4,0,0,1-.14-2.56,8,8,0,0,1,.71-2.85c.11,0,0-.11.43,0l1.05.42c.45.22.32.24.55.4a5.78,5.78,0,0,0,.54.31,4.3,4.3,0,0,1,1,.72c.3.33.65.48.91.77l1.26,1.38c.42.42.06.12.28.43s.22.15.43.45l1.25,1.87c.22.36.24.15.42.48l.84,1.51c.19.4.09.12.28.43l1.34,2.61c.84,1.69.64,3.32-.52,2.92l-3.37-2.74a11.08,11.08,0,0,0-1-.84c-.53-.36-.37-.4-.9-.8l-2.34-2a1.86,1.86,0,0,1-.47-.42"/><path class="cls-2" d="M158.08,215.21l-3.67.34c-.12,0-.17,0-.3,0a.79.79,0,0,0-.25.08c-.42.12-.68,0-1,.11l-1.94.39a9.89,9.89,0,0,0-1.1.15l-2.93.59c-.43,0-.19,0-.54.11s.12,0-.24.1l-.27,0-1.51.3c-.58.11-.11.06-.48.19s-.63.06-1,.19l-10.5,3.67c-.14.06-.11,0-.25.07l-.94.45c-.19.09-.09,0-.25.09l-2,1.05a13.16,13.16,0,0,1-1.75.82l1.15-1.72c.37-.56.17-.15.5-.53.12-.15.27-.46.37-.59l1.41-1.71c.56-.57,1.12-1.51,1.8-2.12s.88-1.06,1.42-1.55l3.23-2.87.07,0,3.5-2.26.07,0,3.74-1.64c.33-.12,0,0,.22-.12s.06-.06.32-.12l4.66-1.21c.74-.06,1.38-.35,2.07-.38l2.58-.12a6.82,6.82,0,0,1,2.56.2,4.4,4.4,0,0,1,1.78.88l.06.08c1.65,2,.5,5-.59,7.09"/><path class="cls-2" d="M207.88,225.8a8.87,8.87,0,0,0,1.52.74l4.84,3.22c.42.33,0,0,.25.26s.53.33,1.41,1.2a12.73,12.73,0,0,1,1.57,1.5l1.78,1.88c.15.17.14.1.27.25l0,.07.12.22c.22.31.33.2.71.79l2.48,3.66a6.65,6.65,0,0,1,.51,1.8c.4,1.6-1.07,2.05-2.48,2.11-.2,0-.43,0-.59,0-.51,0,0,.1-.64.09a29.24,29.24,0,0,1-4.42-.67,43.92,43.92,0,0,1-4.11-1.77c-.45-.19-.41-.37-.94-.66a4.63,4.63,0,0,1-.62-.36l-4.29-3.74a12.56,12.56,0,0,0-1-.83l-2.75-2.42-.23-.17c-.35-.31-.13-.27-.72-.68a5.11,5.11,0,0,1-.49-.33l-3.89-3.26-.56-.38c-.45-.32-1.26-1.13-2-1.62a3.22,3.22,0,0,1-.56-.4c-.78-.74-1.05-.64-1.53-1.12a1.66,1.66,0,0,0-.51-.4l-2.73-1.92c.48-.47.53-.26,1.78-.48h1.3a4.54,4.54,0,0,1,1.63-.06,8.2,8.2,0,0,0,.93.06l.85-.09c-.28-1.67.19-1.73,1.12-1.86a5.2,5.2,0,0,1,1.36.11c.78.12,1.86.1,2.52.27a19.55,19.55,0,0,0,2.7.43,28.72,28.72,0,0,1,5.71,1.17,4.84,4.84,0,0,1,2.42,1.29l.25.25.06.06a.67.67,0,0,1-.2,1.1c-.91.48-.64.24-1.36.39-1.46.3-1.18-.07-1.5.31"/><path class="cls-1" d="M359.9,190.43c-4.86,0-16.7-.85-20.72-.85-4.44,0-6.13,1.5-6.13,3,0,1.28,1.9,2.35,5.08,3.22,6.34,1.92,7.82,5.56,10.78,12.2,4.65,9.42,19.87,46.66,21.35,50.94L376,274.77c.85,2.57,2.54,3.21,4,3.21,2.33,0,5.71-8.13,6.55-10.27,5.5-13.27,12.48-27.83,18.61-40,.21-.64,1.47-.43,1.47,0,4.44,10.28,8.25,20.34,12.27,30C421,263,424,272,424.59,273.49c1.27,1.71,3.17,4.07,5.71,4.07,1.05,0,2.54-1.93,3.17-4.07l8.46-21.62c5.28-12.41,14.59-34.46,20.72-46.24,3.38-6,5.92-8.56,10.36-10.06,3.38-.85,6.13-1.93,6.13-4.06,0-1.29-1.91-2.14-4.66-2.14-3.8,0-9.73,1.07-16.06,1.07-4.65,0-11.21-.86-13.74-.86s-5.08,1.07-5.08,2.57c0,1.93,2.33,2.79,5.08,3.64,7.61,1.92,8.67,4.49,8.67,6.63,0,3-1.9,8.78-4.44,15.63l-10.57,27c-.64.85-1.27.85-1.69,0-3.38-7.28-14.37-36-15.65-38.74a17.6,17.6,0,0,1-1.69-6c0-1.07.85-3.21,5.92-4.71,2.75-.64,4.22-2.14,4.22-3.64,0-1.28-1.47-2.35-4.86-2.35-4.86,0-14.16.86-18,.86-5.28,0-13.54-.86-16.5-.86-3.8,0-5.28,1.07-5.28,2.14,0,1.93,1.47,3,4.65,4.07,4,1.49,5.5,3.64,7.82,7.71A95.35,95.35,0,0,1,402,216.12a8.85,8.85,0,0,1-.63,3.64c-3.59,8.56-9.3,20.76-11.63,25.68-.43.64-1.27.64-1.91-.21-1.48-3.22-13.32-33.39-16.28-42.18-1.48-4.06-.63-6.21,3.17-7.06,3.59-1.07,4.86-2.57,4.86-3.64s-1.48-2.57-5.28-2.57c-4,0-9.09.64-14.37.64m180.76-3c-7.82,0-17.33,4.07-24.73,10.92-.64.43-1.49-.64-1.49-1.07-.21-3.64.22-54.79,2.54-70.85,0-.64-1.27-2.79-2.11-2.79-1.05,0-1.9.43-3.59,1.5-7.61,4.5-23.89,7.71-27.49,8.57-1.05.21-1.48.85-1.48,1.5a5.8,5.8,0,0,0,2.12,4.06c5.7,4.07,7.19,4.71,7.82,9.63.64,4.28.64,31.47.64,47.52,0,28-1.06,53.59-1.91,61-.42,4.5-1.26,8.1-7.4,10.45-4.44,1.29-5.92,2.79-5.92,4.07,0,1.93,3,3,5.29,3,3.59.21,9.3-.43,18.18-.43,9.94,0,17.54.22,19.24.22,2.75,0,6.13-.64,6.13-3,0-1.29-1.69-2.79-5.07-3.64-5.08-1.28-7-3.85-7.19-11.13-.22-6.21-.22-35.11.42-46.45.21-3.21,1.69-6.63,2.54-7.28a24.14,24.14,0,0,1,12-3,19,19,0,0,1,12.9,4.71c2.75,2.35,5.28,6.64,5.28,17.56,0,4.28,0,31-.42,35.74-.64,7.06-1.49,9.21-6.55,10.7-2.75.85-4.44,2.14-4.44,3.43s1.48,2.79,5.28,2.79c7.4,0,11.63-.64,19.45-.64,5.49,0,11.21.85,17.33.85,4.44,0,6.13-1.28,6.13-3,0-1.5-1.27-2.78-5.49-3.85-5.71-1.5-8.25-3.43-8.46-8.78l-.85-38.53c0-9.2-1.69-17.76-5.92-23.54-4.44-6.21-11.84-10.28-22.84-10.28m90.49,0c-3,0-13.32,2.78-21.14,7.92-13.11,8.56-17.75,14.34-17.75,20.55,0,1.28,1.47,3,2.74,3s17.13-7.06,18.6-8.56a2.73,2.73,0,0,0,.85-1.92c0-7.28.42-9.42,1.27-9.85,1.48-1.07,3.8-1.5,6.76-1.5,9.52,0,14,8.56,14.16,13.7.21,2.79-.2,14.56-.42,16.48,0,.85-1.27,2.35-3.8,3.21-4.86,1.5-24.1,6.85-28.75,8.78-1.91.85-5.5,2.14-7.61,5.14a20,20,0,0,0-3.8,10.92c0,12,8.46,21.62,16.28,21.62a32.44,32.44,0,0,0,9.3-1.72,94,94,0,0,0,16.7-9c.42-.43,1.69,0,1.91.85,3.17,8.35,9.72,10.28,15.85,10.28,11.84,0,21.78-10.49,21.78-14.56a8.49,8.49,0,0,0-.63-3c-.43-.43-.64-.64-1.27-.21-2.11.85-6.34,2.56-7.4,2.56-3.59,0-7.82-2.56-7.82-8.56,0-2.35.85-27.83.85-36.18,0-9.63-2.11-15-4.65-18.41-3.17-4.71-9.09-11.56-22-11.56m-5.92,76.63c-4,0-11.63-4.27-11.63-13.7,0-5.56,1.27-6.63,3.81-8.56,3.8-2.35,13.53-5.57,17.12-5.57.64,0,1.48,1.29,1.48,2.14,0,7.06-.42,16.06-.84,19,0,.86-.85,3.43-1.91,4.07a19.63,19.63,0,0,1-8,2.57m56.67-127.8c0,1.07,1.05,2.14,3.8,4.5,4.44,3.43,5.49,4.71,5.71,7.28.22,6,.22,26.33.22,37.46,0,33.82-.64,57.8-1.27,67.43-.63,11.14-1.9,14.35-8.88,16.27-2.33.43-5.08,1.28-5.08,3.64,0,1.07,1.49,2.57,6.13,2.57,4.44,0,14.81-.85,19.66-.85,3.8,0,15.86.85,20.93.85,2.32,0,5.71-.64,5.71-2.57,0-1.49-1.48-2.56-4.44-3.64-8-2.35-8.88-4.92-9.51-9.85-.64-6.42-.85-34.68-.85-51.37,0-32.11,1.06-75.14,1.69-82.85,0-.85-1.9-2.56-2.54-2.14-8.24,5.35-18.39,7.06-27.48,9.63-2.32.85-3.8,2.57-3.8,3.64m96.64,51.16a42.41,42.41,0,0,0-17.33,4.07,46.52,46.52,0,0,0-26.85,42.39c0,24.4,14.8,43,39.11,43,17.34,0,27.29-8.33,33.82-18.62a11.66,11.66,0,0,0,1.7-5.36c0-1.28-1.06-2.78-1.91-2.78s-1.83,1.33-2.74,2.56c-4,5.4-10.15,7.5-19,7.5-9.3,0-18.23-3.83-23.47-10.7-4.06-5.32-6.55-15.2-6.55-19.91a30.4,30.4,0,0,1,.85-7.71,2.47,2.47,0,0,1,2.32-1.5h46.09c2.54,0,4.65-3.64,4.65-5.14a26.45,26.45,0,0,0-8-18.83,33,33,0,0,0-22.62-9m-1.48,6c5.92,0,11.84,7.06,11.84,13.06,0,5.14-4,7.28-7.4,7.28-10.57,0-17.12.19-22.62,0a1.77,1.77,0,0,1-1.47-2.14c2.48-9.65,10.78-18.2,19.66-18.2m79.5-6a37,37,0,0,0-18.4,4.49c-8.88,4.92-13.32,13.49-13.32,21.41,0,10.92,6.94,19.11,14.81,24,6.31,3.91,8.87,5.58,14.58,9.21,6.76,4.29,8.46,8.13,8.46,11.77,0,3.43-1.21,7.35-4.23,9.63a16.46,16.46,0,0,1-8.46,2.79c-5.28,0-13.54-4.06-20.51-16.06-1.49-2.56-3-4.92-5.08-4.92-.84,0-2.11,1.72-2.11,4.92,0,7.5,3,16.63,4,17.56,3.88,3.58,14.81,4.92,21.35,4.92,6.13,0,16.88-2.42,21.35-5.35,6.94-4.56,13.32-11.56,13.32-21.62,0-9.64-2.61-17-20.72-27C851,217.32,843,212.48,843,204.78c0-5.57,5.28-10.92,10.57-10.92,7.61,0,12.86,4.94,17.54,13.92,1.24,2.37,3.17,5.14,4.65,5.14s3.17-2.57,3.17-4.5c0-1.5-.44-10.7-.85-13.7a5.28,5.28,0,0,0-1.9-3.64,46.92,46.92,0,0,0-7.61-2.35,63.82,63.82,0,0,0-12-1.28m132.76,42.88c0-14.16-5.09-25.3-14.37-33.47-6.79-6-16.28-9.42-27.06-9.42-5.92,0-15.68,2.09-22.41,6.42-.25.17-.82-.43-.84-1.07q-.25-8.13-.21-16.27c0-16.7,4.46-34.25,5-49.45,0-1.28-1.69-3.43-2.32-3.43-1.05,0-3,.64-7,2.79-7,3.64-15.65,5.35-22.83,7.28-1.27.43-3.59,2.57-3.59,4.06,0,1.07,2.11,1.93,6.13,4.92,3.38,3,4.26,5.35,4.44,6.63.45,3.21-2.51,30.4-2.51,50.74,0,17.59-.3,54.94-1.27,71.68a2.92,2.92,0,0,0,2.32,2.82,7.71,7.71,0,0,0,2.75-.85c2.17-1.18,3.54-1.37,4.44-1.08a115.16,115.16,0,0,0,28.33,4.5c8,0,21.95-2.63,31.08-9.42,9.89-7.37,19.87-20,19.87-37.4m-25.37,4.28c0,10.21-2.92,22.41-8.46,28.62-4.21,4.71-8.46,6.42-10.36,6.42a19.51,19.51,0,0,1-12.9-5.78,22.86,22.86,0,0,1-5.92-12.2,318.39,318.39,0,0,1-1.9-37.24,119.56,119.56,0,0,1,.42-12,4.2,4.2,0,0,1,1.69-2.35,18.34,18.34,0,0,1,8.24-1.72,27.42,27.42,0,0,1,20.09,9.21c5.87,7.14,9.09,18.48,9.09,27m86.26,29.05a19.34,19.34,0,0,1-11.84-4.07,12,12,0,0,1-4-9.21c0-9.85.61-42,.21-58.23,0-.85-.85-3.2-1.69-3.2s-23.26,2.35-29.18,2.35c-2.11,0-3.38,1.28-3.38,2.35,0,1.92,1.89,3.67,3.81,4.5,3.57,1.53,7,2.78,7.19,9,.41,11.34.63,32.11.63,47.31,0,2.78.89,9.17,2.33,11.34,4.69,7,11.63,11.35,21.56,11.35,6.13,0,9.89-1.62,13.54-3.22,2.7-1.18,9.57-5.49,14.8-9.42.48-.36,1.31.43,1.27,1.5-.17,3.64-.43,7.5-.43,8.77,0,1.5,1.49,3,2.33,3,.63,0,7.38-1.78,11-2.79,4.85-1.34,15.86-4.13,21.57-4.49,1.05-.06,2.71-1.91,2.53-2.35-.25-.63-1.69-5.56-2.54-5.56-2.74,0-7.39,1.39-9.51,1.5-2.32.11-2.75-3.22-2.75-3.85,0-6.85.68-61.22,1.05-68.93,0-.85-.63-3.43-2.11-3.43a27.11,27.11,0,0,0-5.08.85,174.4,174.4,0,0,1-27.9,2.79c-1.69,0-3.59,1.28-3.59,2.14,0,1.72,1.92,3.35,3.38,3.85,2.78,1,5.14,2,8.46,3.21a5.76,5.76,0,0,1,3.59,4.92l-.21,47.95c0,.86-1.29,4.26-2.11,4.92a21.56,21.56,0,0,1-12.89,5.14M1110,200.07c0,.85,4.24,4.7,7.61,7.5,1.28,1.05,1.69,4.27,1.69,8.13V251c0,12.85-.64,15.18-8.25,18-1.7.63-4.86,1.72-4.86,3.22,0,2.35,2.75,3,5.08,3,5.07,0,9.51-.64,14-.64,12.47,0,23.47,1.07,29.81,1.07,3.38,0,5.92-.85,5.92-2.56,0-.85-.85-2.33-4.23-3.43-2.55-.83-7-2.34-9.09-2.79-3-.62-4.44-4.49-4.86-11.13-.2-3.21-1.27-40.46-1.27-44.74a5.14,5.14,0,0,1,1.91-4.28c1.26-1.07,3.38-1.29,5.28-1.29,4,0,11,3.83,13.32,6,.66.62,3,.93,3.8.85,1.49-.14,8.06-9,10.36-12.63a9.24,9.24,0,0,0,1.27-3.42c0-3-3-8.78-12.27-8.78-6.55,0-15.83,6.23-22.41,13.27-.61.66-1.69-.21-1.69-.85,0-4.06.64-8.13.64-12,0-.64-1.27-2.56-2.54-2.56-.63,0-2.73,1.09-5.08,2.56-3.78,2.38-13.29,5.64-21.35,8.13-2.3.71-2.75,3.64-2.75,4.07m114.17-13.49c-10.57,0-19.27,3.18-25.59,7.92-8.26,6.19-12.69,14.34-12.69,24,0,15.42,11.08,23.82,17.13,27,.94.5.84,1.93.42,2.14-3.38,4.06-15.2,10.74-17.12,12.2a4.81,4.81,0,0,0-1.49,2.56c0,7.71,3.38,13.49,8.25,16.91,2.74,1.93,6.8,3.34,8.67,4.07.88.34.63,1.05,0,1.49-2.76,1.92-9.34,5.95-13.53,8.78-2.79,1.88-6.55,5.14-6.55,12.63,0,6.85,4.14,14.47,11.21,19.27,7.74,5.27,15.85,7.28,26.64,7.28a59,59,0,0,0,32.13-9.42c8.45-5.36,21.78-16.91,21.78-34.26a26.49,26.49,0,0,0-9.09-19.48,24,24,0,0,0-10.78-5.14c-6.15-1-30.45-1.64-39.75-2.14-2.54-.14-7.82-3.85-7.82-7.92,0-1.72,2.41-4.38,4-5.57.72-.53,1.47-.6,3-.43,2.11.25,7.19.43,8.46.43,4.86,0,16.14-1,25.59-8.14,8.32-6.32,12-15.2,12-26.76a37.17,37.17,0,0,0-1.27-9.2c-.22-.22.21-1.57,1.27-1.5,5.08.35,11,.22,12.26.22.84,0,4.65-4.92,4.65-8.13a2.66,2.66,0,0,0-2.11-2.35c-3.6-.64-19-1.55-23.89-1.72a32.27,32.27,0,0,1-5.71-1.28c-6-1.55-11.42-3.43-20.09-3.43m-2.11,6c4.23,0,8.2,3.25,11.42,8.13s4.65,14.12,4.65,17.35c0,9.2-2.24,18.5-5.7,21.62-2.25,2-5.08,3.2-6.56,3.2-10.15,0-16.91-13.91-16.91-27.61,0-7.92,1.78-13.85,4.86-18.19a10.79,10.79,0,0,1,8.25-4.5m7,129.94c-7.19,0-15-1.71-20.51-6.21a19.56,19.56,0,0,1-7.4-15.2,18.35,18.35,0,0,1,6.35-13.7c1.6-1.39,5.49-2.57,10.15-2.57,11,0,14.59,0,22,1.07,5.71.84,9.09,2.56,11.84,5.56,2.54,2.79,3.59,7.28,3.59,10.49a19,19,0,0,1-9.52,16.91c-4.78,2.72-10.78,3.64-16.49,3.64M393.89,305.34a11.43,11.43,0,0,0-8.38-3.35c-4.83,0-10,2.52-10,8.36,0,5.38,3.88,7.07,7.59,8.23s6.93,2.11,6.93,5.67-3.13,5-5.86,5a8,8,0,0,1-6.51-3.44l-3.18,2.69a12.25,12.25,0,0,0,9.6,4.27c5.2,0,10.11-2.82,10.11-8.9,0-5.84-4.66-7.33-8.58-8.57-3.3-1.07-6-1.95-6-5.13s3.05-4.76,5.69-4.76a7,7,0,0,1,5.69,2.73Zm17.33-2.61h-6.35V332h4v-24.5h.08l9.65,24.5h2.6l9.69-24.5h.08V332H435v-29.3h-6.36L420,325.25H420Zm39.94,22.1H465l3,7.2h4.62l-12.54-29.3h-3.72L443.69,332h4.53Zm6.93-17.35,5.45,13.74H452.6l5.48-13.73ZM485.36,319h4.37l7.43,13h4.94l-8.16-13.45c4.17-.71,7.09-3.44,7.09-7.74,0-6-4.74-8.11-10.4-8.11h-9.35V332h4.08V319Zm0-12.79h5c3.55,0,6.56,1.12,6.56,4.64s-3,4.71-6.85,4.71h-4.7Zm35.9.12h9.36v-3.6h-22.8v3.6h9.35V332h4.09Zm45.14-3.6H560V332h4v-24.5h.08l9.65,24.5h2.6l9.69-24.5h.08V332h4.09v-29.3h-6.36l-8.62,22.51h-.09ZM602.21,332h4.09v-29.3h-4.09Zm21.42-29.3h-5.32V332h4.09V308.12h.08L637.9,332h5.15v-29.3H639v23.43h-.08ZM655.07,332h4.08v-29.3h-4.09V332Zm21.42-29.3h-5.32V332h4.09V308.12h.08L690.76,332h5.15v-29.3h-4.08v23.43h-.08Zm56.31,3.06c-2.39-2.32-6.18-3.8-10.8-3.8-8.86,0-15.55,6.21-15.55,15.35s6.47,15.44,15.59,15.44a22.62,22.62,0,0,0,11-2.57V316H722.49v3.48H729v8.15a14.69,14.69,0,0,1-6.8,1.45c-7,0-11.26-5.22-11.26-11.76s4.29-11.75,11.14-11.75a10.64,10.64,0,0,1,7.92,3.19l2.85-3ZM765.57,332h4.08V319.17h4.62c6.07,0,10.64-2.4,10.64-8.28,0-5.71-4.12-8.15-10.43-8.15h-8.91V332Zm4.08-25.83h4.41c3.84,0,6.73,1.16,6.73,4.68s-2.81,4.8-6.81,4.8h-4.33Zm54.83,11.13c0-9.14-6.6-15.35-15.51-15.35s-15.43,6.21-15.43,15.35,6.56,15.44,15.43,15.44S824.47,326.37,824.47,317.34Zm-4.41,0c0,6.54-4.33,11.76-11.1,11.76s-11-5.22-11-11.76,4.29-11.75,11-11.75S820.06,310.93,820.06,317.34Zm44.36,0c0-9.14-6.6-15.35-15.51-15.35s-15.43,6.21-15.43,15.35,6.56,15.44,15.43,15.44,15.51-6.42,15.51-15.44Zm-4.42,0c0,6.54-4.33,11.76-11.09,11.76s-11-5.22-11-11.76,4.29-11.75,11-11.75S860,310.93,860,317.34Zm19-14.61H874.9V332H892V328.4H879V302.74Z"/><path class="cls-3" d="M955.8,303.05l-.9.5-32.18,17.51,1.76,2.74,31.28-17L974,317.4l.84.49.88-.42,17.5-8.2,18.24,18.6.94,1,1.22-.64,15.68-8.31,14.36,7.14.9.45.85-.5,26.5-15.41,32.13,17,.93.49.9-.55,27.51-16.71,11.66,4.89,1.44-2.89-12.53-5.25-.88-.37-.8.49-27.41,16.65-32.11-17-.92-.48-.89.51-26.53,15.43-14.32-7.11-.85-.43-.84.45-15.3,8.1-18.18-18.54-.89-.9-1.19.56L975,314.23l-18.29-10.66-.9-.53Z"/><path class="cls-2" d="M265.93,208.7c-5-8.55-7.27-25.1-14.51-27.66-2.19,13.87-14.93,3.75-15.28,3.38-11.54-12.3-23.08-42.82-37.76-47.12C195,165.6,182,144.2,177,134.68c-4.15-7.82-8.34-9.14-11.73-14.73-3.63-6-3.37-14.89-8.51-21.09-3.74,4.9-2.34,5.48-5.48,10.85l-9.14,19.41c-1,3-2.6,10.1-3.38,11.91-3.7,8.56-9.91,3.2-13.85,13.06-3.74,9.37-2.09,15.61-7.6,22.22-7.59-2.17-1.12-5.65-10.43-5.25C95.46,217.87,83.45,190.8,71.7,208c-6,8.75-11.42,10.4-17.49,17.56-9.52,11.21-8.49,13.19-14.21,24.06,4.91,8,32.73,58.75,113.93,22,64.22-29,62,40.65,118.88-22h0C273.67,245.46,271.34,217.91,265.93,208.7Zm-39.08,32.74c-.29,1.41-.86,2.69-1.54,2.76a1.72,1.72,0,0,1-1.13-.47c-.31,1-.62,1.31-1.42,1.56l-3.9.4c-1.81-.24-5.69-1.21-7.07-2.12a10.79,10.79,0,0,0-1.21-.71,13.37,13.37,0,0,1-2.24-1.51l-2.87-2.57c-.37-.42-.64-.5-1-.84l-2.42-2.21c-.2-.18-.35-.2-.56-.39a31.13,31.13,0,0,0-2.95-2.52L196,230.72c-.45-.32-.21-.22-.47-.45-.61-.54-1.54-1.05-2.38-1.83-.42-.37-.93-.55-1.34-.94s-1.18-.83-1.61-1.18a11.25,11.25,0,0,0-2.4-1.52,8.61,8.61,0,0,1-1.41,1.16l-1.43,1c-.27.14-.17.11-.35.26l-.86.58c-.19.11-.2.06-.46.2l-.4.2c-.59.27-.79.55-1.34.77l-4.11,1.68a2.92,2.92,0,0,1-.51.14l-4.95,1.2a29.62,29.62,0,0,1-5.89.41c-.2,0-.45-.06-.63,0a10.35,10.35,0,0,1-2.91-.24,6.19,6.19,0,0,0-.63-.08,25,25,0,0,1-7-1.72c.16-.36,1-.87,1.47-1.13l1.19-.89c.38-.29,0,.13.45-.24l1.15-1c.66-.5,1.22-1.16,1.78-1.6a17.46,17.46,0,0,0,1.54-1.66l1.23-1.34c.37-.43.46-.82.89-1.25a23,23,0,0,0,2.64-4.24l-2.93-.22c-.12,0-.38,0-.52,0-1.39-.07-2.87.09-4.28.09a9.21,9.21,0,0,0-1,.14l-3.07.33c-.19,0-.42,0-.59,0l-2.95.51c-.2.06.17,0-.47.09l-6.4,1.25a2,2,0,0,0-.43.12c-.75.27-2.51.51-3.37.85l-7.58,2.7a5.12,5.12,0,0,1-.5.16l-2.59,1.19c-.75.44-1.48.69-2.37,1.25l-2.91,1.72c-3.09,2.12-4.68,3.21-4.78,3.3s-.27.31-.37.4c-.31.29-.17.09-.36.22l-5,4.71a5.43,5.43,0,0,1-.66.77l-1.33,1.52a28.42,28.42,0,0,0-1.86,2.38l.42.57a15.81,15.81,0,0,1,1.4,1.41l2.72,3.23.5.73c.18.3.38.38.56.66s-.06,0,.19.38.19.12.33.33,0,0,.38.67c.17.27,0,0,.2.38l.89,1.49,1,1.81c.5,1.43.82,1.38,1.38,3.09l2.09,6.46.51,1.78c.13.9-.1.72-.21.77-.85.19-4.21-1.19-5.27-1.69a19.24,19.24,0,0,0-2.28-1.1l-2.81-1.91c-.3-.22-.45-.42-.8-.66l-3.21-2.75c-.1-.08-.36-.27-.43-.35a30,30,0,0,0-2.52-2.07c-.16-.14,0-.07-.34-.3-1.71-1.13-1.76-1-3.09-.89l-2.85.37c-.89,0-.43.1-1.1.12l-2.79,0c-.65,0-.14.06-.65.07-.69,0-1.5-.24-2.17-.17a13.83,13.83,0,0,1-3-.31c-.57-.07-.72,0-1.45-.11-1.59-.28-7.19-1.24-7.88-1.86-.13-.24,0-.14-.3-.35a1.92,1.92,0,0,1,.91-1.12c.51-.3.87-.75,1.39-1l2.52-1.52a31.71,31.71,0,0,1,2.77-1.6l1.42-.81a4.37,4.37,0,0,1,.37-.24l1.16-.58a2.15,2.15,0,0,1,.36-.22l3-1.55c.36-.16.06,0,.37-.22l6.74-3c.31-.12.22,0,.43-.1s.22-.12.39-.19.21,0,.43-.12c.37-.15.11-.09.39-.17l1.66-.4a28.7,28.7,0,0,0,.64-3.67,70.1,70.1,0,0,1,5.56-15.6l1.13-2.08c.68-1.38,1.59-2.62,2.35-4a2.08,2.08,0,0,1,.33-.46l2.75-4c.38-.48,0,.06.38-.36l1-1.29a8.27,8.27,0,0,0,.61-.85c.58-.78,1.59-1.77,2.26-2.52l2.28-2.5c.9-.76,1.61-1.72,2.52-2.4l4.54-3.92a10.14,10.14,0,0,1,1.2-.85l5.27-3.69c.32-.21.07-.15.43-.33l3.74-2.13a10.67,10.67,0,0,1,1.3-.68c.23-.08,0,0,.47-.23q.4-.26.82-.47.76-.32,1.49-.68c1.06-.54,1.34-.41,2.5,0q.62.21,1.23.47a2.49,2.49,0,0,1,.54.29c.12.1,0,.09.33.3a6.26,6.26,0,0,1,2.16,2.17c.33.58.82,1.12,1.08,1.67l1.55,3c.14.25.19.22.32.42s.16.29.27.45l1.65,1.75a8.47,8.47,0,0,0,2,1.1,9.55,9.55,0,0,0,3.7.56,17.78,17.78,0,0,0,4.86-.31l.46,0,3-.61a7,7,0,0,1,1-.24,7.18,7.18,0,0,0,2.63-1.33c.27-.26.51-.31.74-.6a5.46,5.46,0,0,0,1-4.94,2.67,2.67,0,0,1-.12-.43c-.12-.36-.27-.37-.57-.77a3.75,3.75,0,0,0-2.08-1.11c-1.62-.42-3.2-.32-4.77-.58-.79-.14-1.61-.32-2.4-.54-1.62-.46-10.58-3.81-12.25-3.36q-2,.43-4.09.82c.42-.14.16-.07.39-.17l.77-.24.48-.18.43-.12c.74-.3,1.57-.39,2.12-.61l7.68-1.49c.15,0,.31-.06.45-.08l1-1.26a7.93,7.93,0,0,0,.82-5.75c-.06-.19-.09-.56-.16-.72l-.5-1.3a9.26,9.26,0,0,0-1.25-2.09c-.12-.22.09,0-.13-.31s-.08,0-.26-.27a20.18,20.18,0,0,0-2.69-2.84c-.77-.66-1.9-1.26-2.53-1.76s-1.41-.77-2.07-1.23l-2.09-1.21a23.63,23.63,0,0,1,4.23-.4,1.84,1.84,0,0,0,.64-.08,20.41,20.41,0,0,1,3.75.2c3.12.46,6.87.94,9.55,2.55a30.94,30.94,0,0,1,2.81,1.33l2.39,1.55a29,29,0,0,1,3.84,3c.45.4,0,.08.37.46.16.15.43.32.58.48l1.73,2c.08.1.35.37.43.46l1.73,2.49a23.69,23.69,0,0,1,1.6,2.68l1.13,2.43a14.8,14.8,0,0,0,1,2.3c2,.64,3.73,1.34,5.76,2.08s3.35,1.47,5.15,2.27l7.59,4.58,1.09.84c.69.38.41.4,1,.77l3.66,3.11c.19.23-.11,0,.45.45s1,1.05,1.64,1.66q.2.18.38.37l1.68,2a19.72,19.72,0,0,1,1.56,2l1.9,2.81c.46.65.69,1.41,1.14,2s.74,1.69,1.2,2.48l1.24,3.18c.16.55.12.14.25.55l1.44,6.19c.16.45.13-.19.16.62,0,.22,0,.32,0,.56l.45,3.71c0,.4,0,.89,0,1.32s.15.5.12,1.21a7.15,7.15,0,0,0,0,1.3c.08.62-.18,1.4-.15,2.07l-.12,3.22c0,.35,0,.88,0,1.3a16.8,16.8,0,0,0,.4,2.35C226.76,239.32,227.34,238.94,226.85,241.44Z"/></svg>