<?xml version="1.0" encoding="UTF-8"?><svg xmlns="http://www.w3.org/2000/svg" xmlns:xlink="http://www.w3.org/1999/xlink" version="1.1" id="Layer_1" x="0px" y="0px" viewBox="0 0 841.9 595.3" style="enable-background:new 0 0 841.9 595.3;" xml:space="preserve" width="100%" height="100%"><style type="text/css"> .st0{fill:#FFFFFF;} </style><g><polygon class="st0" points="344.6,97.8 357.3,119.5 316,212.6 355.7,299.7 399.4,213.6 440.1,299.7 480.3,215.6 493.9,240.7 440.1,357.8 398.4,268.4 355.7,357.8 289.8,215.1 "/><polygon class="st0" points="494.2,357.8 481.5,336.2 522.9,243.1 483.2,155.9 439.4,242.1 398.7,155.9 358.5,240.1 344.9,214.9 398.7,97.8 440.4,187.3 483.2,97.8 549,240.6 "/><g><path class="st0" d="M221.8,444.9h3.5l-16.9,52.5h-4.7l-16-49l-16,49H167l-16.9-52.5h3.7l15.7,49.5l16-49.5h4.5l16,49.5 L221.8,444.9z"/><path class="st0" d="M316,497.4l-8.7-18.3h-29.7l-8.7,18.3h-4.2l25.1-52.5h5.3l25.1,52.5H316z M279.1,476.2H306l-13.5-28.3 L279.1,476.2z"/><path class="st0" d="M376,497.4v-49.6h-21.7v-2.9H401v2.9h-21.9v49.6H376z"/><path class="st0" d="M468.5,497.4v-49.6h-21.7v-2.9h46.8v2.9h-21.9v49.6H468.5z"/><path class="st0" d="M687.6,444.9h4.2v52.5h-3.6v-46.9l-22.3,39.8h-3.8l-22.4-39.6v46.8h-3.6V445h4.2l23.7,42.3L687.6,444.9z"/><path class="st0" d="M585.1,444.9v22.9v4.3c0,11.8-9.6,21.4-21.4,21.4s-21.4-9.6-21.4-21.4v-4.3v-22.9h-3v22.9v4.3 c0,13.4,10.9,24.4,24.4,24.4c13.4,0,24.4-10.9,24.4-24.4v-4.3v-22.9H585.1z"/></g></g></svg>