<?xml version="1.0" encoding="UTF-8"?><svg xmlns="http://www.w3.org/2000/svg" xmlns:xlink="http://www.w3.org/1999/xlink" version="1.1" id="Layer_1" x="0px" y="0px" viewBox="0 0 841.9 439.8" style="enable-background:new 0 0 841.9 439.8;" xml:space="preserve" width="100%" height="100%"><style type="text/css"> .st0{fill:#FFFFFF;} </style><g><path class="st0" d="M367.8,228.9c0-13.2,0-25.6,0-38.7c2.3,1.7,4.1,2.9,5.8,4.2c6,4.4,12.8,6.6,20.2,6.9c3,0.1,4,1.1,4,4.1 c-0.1,16.4,0,32.9-0.1,49.3c0,2.4-0.2,4.8-0.7,7.2c-1.9,9.1-10,12.1-18.8,9c-10-3.5-18.8-9.5-26.8-16.3 c-16.7-14.1-28.1-31.7-34.2-52.6c-4.2-14.3-5.3-28.9-3.4-43.7c2.7-20.8,10.9-39.3,24.3-55.4c10.6-12.8,23.5-22.5,38.7-29.3 c3.7-1.6,7.5-2,11.5-0.9c5.3,1.4,8,5.1,8.9,10.2c0.4,2.5,0.6,5,0.6,7.5c0,20.6,0,41.3,0,61.9c0,3.5,1.8,5.2,5.5,5.1 c12.6-0.1,25.2-0.3,37.9-0.3c7,0,13.7,1.2,19.9,4.9c8.1,4.9,12.4,12.2,12.6,21.6c0.3,14.1,0.2,28.3,0.2,42.4c0,0.9,0,1.7,0.4,2.7 c14.9-13.7,23.2-30.6,24.6-50.7c1.7-24.6-6.6-45.5-24.1-62.6c-0.3,0.1-0.6,0.1-0.9,0.2c0,12.5,0,25.1,0,38.1 c-1-0.5-1.4-0.6-1.8-0.9c-7-6.7-15.6-9.6-25.1-10.2c-2-0.1-2.9-0.7-2.9-2.8c0-17.9-0.2-35.9,0.1-53.8c0.2-10.8,8.7-16.5,19-12.9 c9,3.1,16.9,8.4,24.3,14.2c7.9,6.1,14.7,13.3,20.6,21.3c10.4,14.3,17,30.1,19.5,47.6c4,27.9-1.9,53.6-17.7,76.9 c-9.8,14.4-22.6,25.7-37.7,34.2c-3.6,2-7.6,3.9-11.7,4.6c-10.5,1.6-16.4-3.8-16.4-14.6c-0.1-18.7,0-37.5,0-56.2c0-2.8,0-5.6,0-8.4 c0-4.2-1.2-5.4-5.4-5.4c-13,0-26.1,0-39.1,0c-6.1,0-12-1.2-17.4-4.1c-8.4-4.5-13.5-11.5-13.8-21.1c-0.5-14.2-0.4-28.4-0.6-42.7 c0-1.1,0-2.3,0-3.9C335.8,142.5,333.1,198.1,367.8,228.9z"/><path class="st0" d="M103.7,367.3v-66.6H116v27.5h32.8v-27.5h12.3v66.6h-12.3v-28.4H116v28.4H103.7z"/><path class="st0" d="M168.9,300.7h13.3l18.7,32.1l17.6-32.1h12.8L206.8,344v23.3h-12.3V344L168.9,300.7z"/><path class="st0" d="M235.4,367.3v-66.6h26.1c22,0,33.1,10.5,33.1,31.5c0,23.4-11,35.1-33.1,35.1H235.4z M261.5,356.6 c13.8,0,20.7-8.1,20.7-24.4c0-13.8-6.9-20.8-20.7-20.8h-13.7v45.2L261.5,356.6L261.5,356.6z"/><path class="st0" d="M304.8,367.2v-66.5h30.3c13.6,0,20.4,5.9,20.4,17.8c0,8-5.3,14.7-15.9,20l21.1,28.8h-15.5l-20.3-29v-5.6 c11.8-2,17.7-6.6,17.7-13.7c0-4.9-2.8-7.4-8.3-7.4h-16.9v55.6H304.8z"/><path class="st0" d="M364.2,334.1c0-22.6,11.1-33.8,33.4-33.8c21.9,0,32.9,11.3,32.9,33.8c0,22.4-11,33.7-32.9,33.7 C376.4,367.7,365.2,356.5,364.2,334.1z M397.7,357c13.4,0,20.1-7.7,20.1-23.2c0-15.2-6.7-22.9-20.1-22.9 c-13.7,0-20.6,7.6-20.6,22.9C377,349.3,383.9,357,397.7,357z"/><path class="st0" d="M442,367.3v-66.6h10.9l24.4,55.5l24-55.5h10.5v66.6h-7.7v-53.7l-23.6,53.7h-6.8l-24-53.7v53.7H442z"/><path class="st0" d="M537.3,300.7v66.6h-8.6v-66.6H537.3z"/><path class="st0" d="M554.3,367.3v-66.6h8.6l40.7,53.2v-53.2h8.1v66.6h-8.6l-40.7-53.2v53.2H554.3z"/><path class="st0" d="M671.1,300.7v7h-34.9V330h33.3v7h-33.3v23.3h35.6v7h-44.2v-66.6L671.1,300.7L671.1,300.7z"/><path class="st0" d="M686.4,367.3v-66.6h28.4c12.7,0,19,5.3,19,16c0,8.7-6.2,15.1-18.6,19.2l22.9,31.4h-11.4l-21.2-29.9v-5.6 c12.7-2,19.1-6.9,19.1-14.7c0-6.1-3.5-9.2-10.6-9.2h-19v59.4L686.4,367.3L686.4,367.3z"/></g></svg>