<?xml version="1.0" encoding="UTF-8"?><svg xmlns="http://www.w3.org/2000/svg" xmlns:xlink="http://www.w3.org/1999/xlink" version="1.1" id="Layer_1" x="0px" y="0px" viewBox="0 0 595.3 841.9" style="enable-background:new 0 0 595.3 841.9;" xml:space="preserve" width="100%" height="100%"><style type="text/css"> .st0{fill:#FFFFFF;} </style><g><polygon class="st0" points="338.6,440.3 461.5,374.8 461.5,258.5 207,118.5 108.2,171.6 108.2,646.6 207,591.7 207,228.3 353.5,315.3 243.6,372.9 243.6,491 487.1,655.7 487.1,546.8 "/><polygon class="st0" points="108.2,723.4 108.2,723.3 108.2,723.3 "/><path class="st0" d="M142.1,682.3c-3.1-1.4-7.1-2.1-12-2.1c-5.2,0-9.5,0-12.9,0.2l-9,42.9h10.2l3.6-16.9h3.1c2.3,0,4,0.6,5,1.9 c0.8,1,1.3,2.6,1.5,4.9c0.4,5.3,0.9,8.7,1.4,10.1h10.7c-0.5-0.8-0.8-2.5-1.1-5c-0.4-3.2-0.6-5.6-0.8-7.2c-0.5-4.2-2-6.8-4.6-7.8 v-0.2c7.3-2.1,10.9-6.2,10.9-12.1C148.1,687.1,146.1,684.1,142.1,682.3z M134.3,697.7c-1.8,1.2-4,1.8-6.6,1.8h-4.3l2.6-11.8 c1-0.2,2.3-0.3,4-0.4c4.9,0,7.3,1.7,7.3,5C137.3,694.6,136.3,696.4,134.3,697.7z"/><polygon class="st0" points="178.7,723.3 208.2,723.3 209.8,715.5 190.6,715.5 192.8,705.1 209.9,705.1 211.5,697.3 211.5,697.3 194.5,697.3 196.5,688.2 214.6,688.2 216.2,680.4 187.8,680.4 "/><path class="st0" d="M267.1,700.8c-2.6,5-4.8,9.4-6.4,13.2h-0.1c-0.2-3.8-0.6-8.2-1.1-13.2l-2.2-20.4h-10.6l6,42.9h11.9l24.8-42.9 h-11.5L267.1,700.8z"/><path class="st0" d="M330.3,680.4l-23.4,42.9h10.9l5.7-11.1h13.8l1,11.1h10.8l-5.6-42.9H330.3z M326.5,705.2l4.8-9.2 c1.9-4,3.2-6.8,3.9-8.4h0.1c0.2,2.8,0.4,5.6,0.7,8.4l0.9,9.2H326.5z"/><polygon class="st0" points="386,723.3 396.3,723.3 405.4,680.4 395.1,680.4 "/><path class="st0" d="M471.9,695.9c-1.3,6.1-2,11.2-2.2,15.4h-0.2c-1.2-5.3-2.7-10.2-4.4-14.6l-6.3-16.3h-12l-9.1,42.9h9.5l3.1-15.1 c1.6-7.6,2.6-13.3,3.1-17l0.2-0.1c1.2,5.1,2.8,10,4.7,15l6.7,17.1h10.7l9.1-42.9h-9.6L471.9,695.9z"/></g></svg>